<svg width="30" height="30" viewBox="0 0 30 30" fill="none" xmlns="http://www.w3.org/2000/svg">
<g clip-path="url(#clip0_1_95)">
<path d="M26.9974 9.93031C26.9973 9.47684 26.9002 9.07606 26.704 8.73209C26.5115 8.39384 26.2229 8.11034 25.8359 7.88619C22.6413 6.04391 19.4435 4.20725 16.2499 2.36309C15.3889 1.86594 14.5542 1.88403 13.6995 2.38841C12.4279 3.13841 6.06166 6.78622 4.16449 7.88516C3.38327 8.3375 3.00307 9.02975 3.00288 9.92938C3.00166 13.6345 3.00288 17.3394 3.00166 21.0445C3.00166 21.4879 3.09475 21.881 3.28222 22.2198C3.47495 22.5683 3.7675 22.8596 4.16346 23.0888C6.06072 24.1877 12.4278 27.8353 13.6991 28.5854C14.5541 29.09 15.3889 29.1081 16.2502 28.6107C19.4438 26.7665 22.6418 24.9299 25.837 23.0877C26.2329 22.8585 26.5255 22.5671 26.7182 22.2189C26.9054 21.8801 26.9987 21.4871 26.9987 21.0433C26.9987 21.0433 26.9987 13.6354 26.9974 9.93031" fill="#9B4F96"/>
<path d="M15.0367 15.4509L3.28197 22.2198C3.47479 22.5683 3.76734 22.8596 4.16329 23.0888C6.06056 24.1877 12.4276 27.8353 13.6989 28.5854C14.5539 29.09 15.3887 29.1081 16.25 28.6107C19.4437 26.7665 22.6416 24.9299 25.8368 23.0877C26.2328 22.8585 26.5253 22.5671 26.718 22.2189L15.0367 15.4509" fill="#530068"/>
<path d="M11.5551 17.4559C12.2391 18.6501 13.5249 19.4556 15 19.4556C16.4842 19.4556 17.7773 18.64 18.4578 17.4328L15.0367 15.4509L11.5551 17.4559Z" fill="#530068"/>
<path d="M26.9973 9.93031C26.9971 9.47684 26.9001 9.07606 26.7039 8.73209L15.0367 15.4509L26.718 22.2189C26.9052 21.8801 26.9983 21.4871 26.9985 21.0433C26.9985 21.0433 26.9985 13.6354 26.9973 9.93031" fill="#68217A"/>
<path d="M26.355 15.9346H25.4422V16.8478H24.5291V15.9346H23.6164V15.0219H24.5291V14.1089H25.4422V15.0219H26.355V15.9347V15.9346ZM15 7.51691C17.9185 7.51691 20.4704 9.08628 21.8588 11.4271L21.9004 11.4983L18.432 13.4958C17.7447 12.3137 16.4656 11.5183 15 11.5183C12.8084 11.5183 11.0318 13.2951 11.0318 15.4869C11.031 16.1777 11.2115 16.8566 11.5551 17.4559C12.2391 18.6501 13.5249 19.4556 15 19.4556C16.4678 19.4556 17.7489 18.6578 18.4352 17.4725L18.4578 17.4328L21.9212 19.4397C20.5479 21.8394 17.9628 23.4569 15 23.4569C12.0426 23.4569 9.46156 21.8458 8.08642 19.4532C7.41507 18.2851 7.03093 16.9309 7.03093 15.4869C7.03093 11.0853 10.5987 7.51691 15 7.51691V7.51691ZM22.1115 14.1088V15.0218H23.0242V15.9346H22.1115V16.8478H21.1986V15.9346H20.2858V15.0219H21.1986V14.1089H22.1115V14.1088Z" fill="white"/>
</g>
<defs>
<clipPath id="clip0_1_95">
<rect width="24" height="27" fill="white" transform="translate(3 2)"/>
</clipPath>
</defs>
</svg>
