<svg width="30" height="30" viewBox="0 0 30 30" fill="none" xmlns="http://www.w3.org/2000/svg">
<g clip-path="url(#clip0_2_280)">
<path d="M26.5024 12.8592C25.962 12.47 24.7237 12.324 23.7556 12.5186C23.6431 11.5457 23.1252 10.6944 22.2246 9.94035L21.7068 9.55116L21.3465 10.1106C20.8963 10.8403 20.6712 11.862 20.7386 12.8349C20.7611 13.1754 20.8737 13.7835 21.2114 14.3186C20.8963 14.5132 20.2433 14.7565 19.3878 14.7565H3.10974L3.06475 14.9511C2.90709 15.9239 2.90709 18.9644 4.7533 21.2994C6.1492 23.075 8.22057 23.975 10.9448 23.975C16.8436 23.975 21.2114 21.0318 23.2603 15.705C24.0708 15.7293 25.8045 15.705 26.6826 13.8807C26.7051 13.832 26.7501 13.7347 26.9076 13.37L26.9977 13.1754L26.5024 12.8592ZM16.1231 6H13.6466V8.43233H16.1231V6ZM16.1231 8.91882H13.6466V11.3512H16.1231V8.91872V8.91882ZM13.1962 8.91882H10.7197V11.3512H13.1962V8.91872V8.91882ZM10.2693 8.91882H7.79276V11.3512H10.2693V8.91872V8.91882ZM7.34246 11.8376H4.86587V14.27H7.34236V11.8375L7.34246 11.8376ZM10.2693 11.8376H7.79276V14.27H10.2693V11.8375V11.8376ZM13.1962 11.8376H10.7197V14.27H13.1962V11.8375V11.8376ZM16.1232 11.8376H13.6465V14.27H16.1232V11.8375V11.8376ZM19.0501 11.8376H16.5734V14.27H19.0501V11.8375V11.8376Z" fill="#2396ED"/>
</g>
<defs>
<clipPath id="clip0_2_280">
<rect width="24" height="18" fill="white" transform="translate(3 6)"/>
</clipPath>
</defs>
</svg>
