<svg width="30" height="30" viewBox="0 0 30 30" fill="none" xmlns="http://www.w3.org/2000/svg">
<rect x="4" y="2" width="21" height="26" rx="5" fill="white"/>
<rect x="4" y="2" width="21" height="26" rx="5" fill="#616161"/>
<g clip-path="url(#clip0_2_292)">
<path d="M11.3043 24.5333C13.3203 24.5333 14.9565 23.045 14.9565 21.2111V17.8889H11.3043C9.28835 17.8889 7.65218 19.3772 7.65218 21.2111C7.65218 23.045 9.28835 24.5333 11.3043 24.5333Z" fill="#0ACF83"/>
<path d="M7.65218 14.5667C7.65218 12.7328 9.28835 11.2444 11.3043 11.2444H14.9565V17.8889H11.3043C9.28835 17.8889 7.65218 16.4005 7.65218 14.5667Z" fill="#A259FF"/>
<path d="M7.65218 7.92222C7.65218 6.08836 9.28835 4.6 11.3043 4.6H14.9565V11.2444H11.3043C9.28835 11.2444 7.65218 9.75609 7.65218 7.92222Z" fill="#F24E1E"/>
<path d="M14.9565 4.6H18.6087C20.6247 4.6 22.2609 6.08836 22.2609 7.92222C22.2609 9.75609 20.6247 11.2444 18.6087 11.2444H14.9565V4.6Z" fill="#FF7262"/>
<path d="M22.2609 14.5667C22.2609 16.4005 20.6247 17.8889 18.6087 17.8889C16.5927 17.8889 14.9565 16.4005 14.9565 14.5667C14.9565 12.7328 16.5927 11.2444 18.6087 11.2444C20.6247 11.2444 22.2609 12.7328 22.2609 14.5667Z" fill="#1ABCFE"/>
</g>
<defs>
<clipPath id="clip0_2_292">
<rect width="14.6087" height="19.9333" fill="white" transform="translate(7.65218 4.6)"/>
</clipPath>
</defs>
</svg>
