<svg width="30" height="30" viewBox="0 0 30 30" fill="none" xmlns="http://www.w3.org/2000/svg">
<g clip-path="url(#clip0_2_269)">
<rect width="30" height="30" rx="5" fill="white"/>
<path d="M22.5216 19.5937L23.82 21.5625L28.1466 15L23.82 8.4375L22.5216 10.4063L25.5516 15L22.5216 19.5937ZM7.47844 10.4063L6.18 8.4375L1.85344 15L6.18 21.5625L7.47844 19.5937L4.44844 15L7.47844 10.4063ZM12.2203 8.4375H14.8453L14.3822 11.0625H17.0072L17.4703 8.4375H20.0953L19.6322 11.0625H22.2572L21.7931 13.6875H19.1681L18.7059 16.3125H21.3309L20.8678 18.9375H18.2428L17.7816 21.5625H15.1566L15.6188 18.9375H12.9938L12.5391 21.5625H9.90656L10.3688 18.9375H7.74375L8.20688 16.3125H10.8319L11.2941 13.6941H8.66906L9.13219 11.0625H11.7572L12.2203 8.4375ZM13.4569 16.3125H16.0819L16.545 13.6875H13.92L13.4569 16.3125Z" fill="#0050B2"/>
</g>
<defs>
<clipPath id="clip0_2_269">
<rect width="30" height="30" rx="5" fill="white"/>
</clipPath>
</defs>
</svg>
