<svg width="542" height="542" viewBox="0 0 542 542" fill="none" xmlns="http://www.w3.org/2000/svg">
<rect width="542" height="542" rx="50" fill="white"/>
<g clip-path="url(#clip0_166_22)">
<g clip-path="url(#clip1_166_22)">
<path d="M134.638 458.139V264.419L74.7269 209.457L21.0029 178.956V423.953C21.0029 442.869 36.286 458.139 55.0943 458.139H134.638Z" fill="#4285F4"/>
<path d="M407.361 458.139H486.905C505.77 458.139 520.997 442.812 520.997 423.953V178.958L460.146 213.893L407.361 264.419V458.139Z" fill="#34A853"/>
<path d="M134.639 264.419L126.486 188.727L134.639 116.282L271 218.84L407.362 116.282L416.481 184.816L407.362 264.419L271 366.977L134.639 264.419Z" fill="#EA4335"/>
<path d="M407.361 116.282V264.419L520.997 178.956V133.375C520.997 91.0994 472.872 66.9995 439.181 92.3529L407.361 116.282Z" fill="#FBBC04"/>
<path d="M21.0029 178.956L73.266 218.264L134.638 264.42V116.283L102.818 92.3532C69.0688 66.9978 21.0029 91.0997 21.0029 133.373V178.954V178.956Z" fill="#C5221F"/>
</g>
</g>
<defs>
<clipPath id="clip0_166_22">
<rect width="500" height="500" fill="white" transform="translate(21 21)"/>
</clipPath>
<clipPath id="clip1_166_22">
<rect width="500" height="378" fill="white" transform="translate(21 82)"/>
</clipPath>
</defs>
</svg>
