<svg width="30" height="30" viewBox="0 0 30 30" fill="none" xmlns="http://www.w3.org/2000/svg">
<rect x="7" y="12" width="19" height="14" fill="white"/>
<path d="M25.2143 2H4.78571C3.24777 2 2 3.24777 2 4.78571V25.2143C2 26.7522 3.24777 28 4.78571 28H25.2143C26.7522 28 28 26.7522 28 25.2143V4.78571C28 3.24777 26.7522 2 25.2143 2ZM16.1491 22.2777C16.1491 24.808 14.6634 25.9629 12.4987 25.9629C10.5429 25.9629 9.41116 24.9531 8.8308 23.7286L10.8214 22.5272C11.2045 23.2063 11.5527 23.7808 12.3942 23.7808C13.1951 23.7808 13.7058 23.4674 13.7058 22.2429V13.9379H16.1491V22.2777ZM21.9295 25.9629C19.6603 25.9629 18.192 24.8835 17.4781 23.4674L19.4688 22.3183C19.9911 23.1714 20.6759 23.804 21.8772 23.804C22.8871 23.804 23.5371 23.2991 23.5371 22.5969C23.5371 21.7612 22.8754 21.4652 21.7554 20.9719L21.146 20.7107C19.3817 19.9621 18.2152 19.0161 18.2152 17.0254C18.2152 15.1915 19.6138 13.7987 21.7902 13.7987C23.3455 13.7987 24.4598 14.3384 25.2607 15.7545L23.3571 16.9732C22.9393 16.2246 22.4866 15.9286 21.7844 15.9286C21.0705 15.9286 20.6179 16.3812 20.6179 16.9732C20.6179 17.7045 21.0705 18.0004 22.121 18.4589L22.7304 18.7201C24.808 19.608 25.9746 20.5192 25.9746 22.5621C25.9746 24.7558 24.2451 25.9629 21.9295 25.9629Z" fill="#F0DC4E"/>
</svg>
