<svg width="500" height="500" viewBox="0 0 500 500" fill="none" xmlns="http://www.w3.org/2000/svg">
<g clip-path="url(#clip0_140_26)">
<path d="M382.812 0H117.188C52.4666 0 0 52.4666 0 117.188V382.812C0 447.533 52.4666 500 117.188 500H382.812C447.533 500 500 447.533 500 382.812V117.188C500 52.4666 447.533 0 382.812 0Z" fill="white"/>
<path d="M382.812 0H117.188C52.4666 0 0 52.4666 0 117.188V382.812C0 447.533 52.4666 500 117.188 500H382.812C447.533 500 500 447.533 500 382.812V117.188C500 52.4666 447.533 0 382.812 0Z" fill="#0A66C2"/>
<path d="M360.771 425.166H417.939C420.011 425.166 421.998 424.343 423.463 422.878C424.928 421.414 425.751 419.427 425.752 417.355L425.781 296.57C425.781 233.439 412.178 184.914 338.402 184.914C310.357 183.871 283.91 198.328 269.639 222.469C269.569 222.586 269.463 222.677 269.336 222.728C269.21 222.78 269.07 222.788 268.938 222.753C268.807 222.717 268.69 222.639 268.607 222.531C268.523 222.423 268.478 222.291 268.477 222.154V198.555C268.477 196.483 267.653 194.496 266.188 193.03C264.723 191.565 262.736 190.742 260.664 190.742H206.412C204.34 190.742 202.353 191.565 200.888 193.03C199.423 194.496 198.6 196.483 198.6 198.555V417.344C198.6 419.416 199.423 421.403 200.888 422.868C202.353 424.333 204.34 425.156 206.412 425.156H263.576C265.648 425.156 267.635 424.333 269.1 422.868C270.566 421.403 271.389 419.416 271.389 417.344V309.193C271.389 278.613 277.189 248.998 315.102 248.998C352.475 248.998 352.959 283.99 352.959 311.174V417.354C352.959 419.426 353.782 421.413 355.247 422.878C356.712 424.343 358.699 425.166 360.771 425.166ZM74.2188 116.459C74.2188 139.633 93.2949 158.699 116.469 158.699C139.637 158.697 158.701 139.619 158.701 116.451C158.697 93.2832 139.631 74.2188 116.461 74.2188C93.2852 74.2188 74.2188 93.2871 74.2188 116.459ZM87.8105 425.166H145.051C147.123 425.166 149.11 424.343 150.575 422.878C152.04 421.413 152.863 419.426 152.863 417.354V198.555C152.863 196.483 152.04 194.496 150.575 193.03C149.11 191.565 147.123 190.742 145.051 190.742H87.8105C85.7385 190.742 83.7514 191.565 82.2863 193.03C80.8211 194.496 79.998 196.483 79.998 198.555V417.354C79.998 419.426 80.8211 421.413 82.2863 422.878C83.7514 424.343 85.7385 425.166 87.8105 425.166Z" fill="white"/>
</g>
<defs>
<clipPath id="clip0_140_26">
<rect width="500" height="500" fill="white"/>
</clipPath>
</defs>
</svg>
