<svg width="30" height="30" viewBox="0 0 30 30" fill="none" xmlns="http://www.w3.org/2000/svg">
<rect width="30" height="30" rx="5" fill="white"/>
<path d="M7.38443 3.46261C7.34428 3.55736 7.3063 3.67973 7.2709 3.82736L7.245 3.94261C7.23637 3.98275 7.22817 4.02419 7.22018 4.06736L7.19644 4.20074L7.17356 4.34319L7.1522 4.49383L7.13212 4.6529L7.11313 4.81973L7.09565 4.99455L7.08745 5.08455L7.07191 5.27038L7.0581 5.46333L7.04558 5.66319C7.04363 5.69735 7.04176 5.73153 7.03997 5.7657L8.27795 6.36484C8.25918 5.64203 8.28248 4.95873 8.34766 4.33067L8.3604 4.21887L8.35177 4.32139L8.34054 4.49081L8.33644 4.57175L8.32975 4.75628L8.32716 4.86009L8.32436 5.09103L8.32479 5.28484L8.32781 5.49678L8.33126 5.64786L8.33925 5.89024L8.34659 6.06203L8.35565 6.24225L8.36083 6.33549C8.59133 6.1475 8.86759 5.9006 9.15464 5.63081L9.34738 5.44779C9.37975 5.41693 9.41213 5.38585 9.44428 5.35455L9.63766 5.16592L9.82867 4.97642L10.0147 4.78822L10.1939 4.60391C9.99594 4.19923 9.78227 3.90182 9.58371 3.68448L9.5181 3.6152C9.47712 3.57319 9.4348 3.53252 9.39119 3.49326L9.33033 3.44016L9.27162 3.39225C9.2522 3.37714 9.23364 3.36268 9.21529 3.34909L9.16133 3.31067L9.11061 3.27635L9.04025 3.23275L8.97766 3.19779L8.90774 3.16326L8.85551 3.14081L8.76011 3.10628L8.6904 3.08383L8.62284 3.06484L8.57105 3.05189L8.51493 3.03894C8.50509 3.03685 8.49523 3.03484 8.48536 3.0329L8.42342 3.02211L8.35867 3.01261C8.01615 2.97009 7.57392 3.0152 7.38443 3.46261Z" fill="url(#paint0_linear_2_242)"/>
<path d="M8.60191 10.0192C8.54571 9.61458 8.49355 9.20938 8.44543 8.80369C8.40777 8.47781 8.37597 8.15128 8.35004 7.82426L8.32802 7.53506C8.32765 7.52765 8.32751 7.52024 8.32759 7.51283C8.30039 7.13035 8.2819 6.7473 8.27212 6.36398L7.03651 5.76829L7.03327 5.84383L7.02486 6.00117C7.01157 6.31468 7.00358 6.6284 7.0009 6.94218C6.99849 7.33169 7.00093 7.72122 7.00824 8.11067C7.01687 8.48513 7.03219 8.87577 7.05248 9.2729C7.06759 9.52801 7.08399 9.78506 7.10277 10.0453L7.12543 10.3462L8.77824 11.1836L8.71996 10.7936L8.60191 10.0192V10.0192Z" fill="url(#paint1_linear_2_242)"/>
<path d="M10.9926 19.6171L11.0181 19.7053L11.1821 20.263C11.2059 20.3422 11.2296 20.4219 11.254 20.502L11.3323 20.7556L11.3591 20.8469C11.3638 20.8617 11.369 20.8764 11.3746 20.8913L11.641 21.7447C11.8769 21.6959 12.1641 21.7838 12.4678 21.9163L12.5902 21.9715C12.3666 21.7026 12.0571 21.5226 11.6874 21.481C12.6996 20.8058 13.3656 19.9363 13.2722 18.8988C13.2623 18.8039 13.2486 18.7094 13.2312 18.6156C13.2161 18.9981 13.0635 19.2789 12.621 19.5789L12.5664 19.6149C13.024 18.8097 13.15 18.2632 13.0959 17.557C13.0814 17.3774 13.0597 17.1984 13.0309 17.0205C12.8846 18.072 12.3197 18.7527 11.4936 19.1554L10.9926 19.6173V19.6171Z" fill="url(#paint2_linear_2_242)"/>
<path d="M10.3997 18.3828L10.2944 17.9887L10.0829 17.191C9.98221 16.8026 9.88451 16.4134 9.78982 16.0235C9.69378 15.6297 9.60119 15.2334 9.50838 14.8371C9.41428 14.4314 9.32601 14.0267 9.24075 13.6194L9.15701 13.2169L8.99601 12.4115C8.96731 12.2663 8.94047 12.1207 8.9155 11.9748C8.86972 11.7258 8.82584 11.4763 8.78385 11.2266L8.77478 11.186L7.13147 10.3471L7.13665 10.3993C7.1373 10.4084 7.13773 10.4174 7.1373 10.4263C7.17054 10.7986 7.2027 11.1765 7.24673 11.5563C7.28989 11.942 7.33888 12.3288 7.39629 12.7197C7.44485 13.049 7.49709 13.376 7.55169 13.7064L7.58752 13.9043C7.73129 14.6961 7.91636 15.4797 8.14198 16.2521C8.21342 16.4917 8.28356 16.7222 8.35521 16.9408L8.41888 17.1249L8.55054 17.4914C8.70651 17.9139 8.87968 18.3298 9.0696 18.7382L10.7306 19.5799C10.6421 19.2743 10.5603 18.964 10.4703 18.6491L10.4244 18.4728L10.4 18.3825L10.3997 18.3828Z" fill="url(#paint3_linear_2_242)"/>
<path d="M9.09399 18.7933C9.29153 19.2185 9.5117 19.633 9.75356 20.0347L9.88738 20.251C9.72982 20.1875 9.53083 20.156 9.33745 20.142L9.2414 20.1364C9.22565 20.1356 9.2099 20.135 9.19414 20.1344L9.10198 20.1325L8.97227 20.1329L8.85615 20.1364L8.7586 20.1413L8.6222 20.1525C8.6209 20.1528 8.62047 20.1528 8.62069 20.153C9.46047 20.4443 10.1971 20.8009 10.6618 21.3417C10.477 21.5451 10.1315 21.6996 9.69702 21.8254C10.0203 21.8606 10.2668 21.8461 10.4446 21.8172L10.5165 21.804C10.5275 21.8018 10.5386 21.7994 10.5495 21.7969L10.6091 21.7823L10.6607 21.7671L10.7233 21.7453L10.7552 21.7322C10.4885 21.9545 10.3214 22.3337 10.1826 22.7587L10.1347 22.9104L10.1114 22.9872C10.4647 22.4097 10.8154 22.0272 11.1567 21.8809C11.538 23.1452 11.979 24.4907 12.4628 25.8946L12.689 26.5466C12.766 26.7668 12.8434 26.9868 12.9213 27.2066C13.0337 27.0614 13.0464 26.9008 12.9992 26.7372L12.8444 26.2999L12.6681 25.7893L12.3951 24.9791L12.1715 24.2999L11.9241 23.5333L11.688 22.7854L11.4713 22.0846L11.3118 21.5599L11.1823 21.1266C11.1649 21.0698 11.1489 21.012 11.1318 20.9533L11.0831 20.7925L10.9428 20.3084L10.8003 19.8105L10.7364 19.5808L10.7339 19.5776L9.07263 18.7358C9.07651 18.7505 9.08061 18.7624 9.08558 18.7747L9.09421 18.7933H9.09399Z" fill="url(#paint4_linear_2_242)"/>
<path d="M8.9714 11.2192L9.00076 11.3802C9.02234 11.4899 9.04176 11.6004 9.06291 11.7117L9.2427 12.6338L9.30874 12.9549L9.40478 13.4086L9.45443 13.6402C9.50407 13.87 9.5563 14.1033 9.61112 14.3416L9.72399 14.8251L9.83622 15.2966L9.8945 15.5371L10.0154 16.0251L10.1358 16.4994C10.1971 16.739 10.2601 16.9829 10.3266 17.2311C10.3751 17.4146 10.4256 17.6008 10.4772 17.7892L10.6499 18.4181L10.7805 18.8805L10.9154 19.3527C10.9382 19.4321 10.9611 19.512 10.9844 19.5918C10.9852 19.6008 10.988 19.6094 10.9926 19.6171L11.4936 19.1554L11.4815 19.1606L11.4547 19.1735C12.0495 18.612 12.5591 17.4866 12.6756 16.4725C12.7292 16.0052 12.7242 15.5079 12.6601 14.9656C12.6137 14.5613 12.5315 14.1366 12.4184 13.6769C12.3123 13.2511 12.1893 12.8296 12.0497 12.4136C11.9578 12.6012 11.8272 12.7857 11.6671 12.9657L11.5803 13.0607L11.5505 13.0917L11.4877 13.155C11.9263 12.473 11.9785 11.7409 11.8482 10.9807C11.7685 11.2061 11.6121 11.5402 11.3524 11.8404C11.3171 11.8814 11.2799 11.9209 11.241 11.9587C11.2341 11.9636 11.2285 11.9701 11.2216 11.9768L11.2095 11.9869C11.355 11.7446 11.4625 11.5143 11.5315 11.2812C11.5423 11.2488 11.551 11.2158 11.5583 11.183L11.5691 11.1333C11.5868 11.0578 11.5985 10.9814 11.6101 10.905L11.6269 10.7571C11.6334 10.6702 11.6354 10.5808 11.6313 10.4899L11.6196 10.3229C11.6185 10.3105 11.6169 10.2982 11.6149 10.286L11.5976 10.1789C11.5947 10.162 11.5914 10.1452 11.5879 10.1284C11.554 9.92988 11.5167 9.75268 11.4782 9.59556L11.4422 9.45462L11.4096 9.3357L11.3671 9.19477L11.3121 9.02988C11.3065 9.0138 11.3007 8.99783 11.2946 8.98196L11.2611 8.89887C11.2514 8.87529 11.2413 8.8519 11.2307 8.82872L11.2033 8.77261C11.1978 8.79509 11.1907 8.81715 11.1821 8.83865L11.167 8.87211C11.0634 9.11513 10.8228 9.44837 10.6033 9.68232C10.5998 9.68491 10.5966 9.68729 10.5957 9.69311L10.5504 9.73844C10.5425 9.74675 10.5349 9.75532 10.5275 9.76412L10.5362 9.74729L8.95737 11.1931C8.97076 11.2039 8.97248 11.2134 8.9714 11.2192V11.2192Z" fill="url(#paint5_linear_2_242)"/>
<path d="M8.36083 6.33549C8.3673 6.45074 8.37464 6.57074 8.38349 6.69592L8.4027 6.95189C8.40615 6.99549 8.40961 7.03973 8.41349 7.08462L8.4368 7.35937L8.44975 7.50117L8.45342 7.54693C8.45424 7.5542 8.45554 7.56141 8.4573 7.56851C8.47068 7.70944 8.48536 7.85426 8.50198 8.00383L8.53694 8.3088C8.54946 8.41239 8.56263 8.51836 8.57644 8.62671L8.64205 9.12268C8.67291 9.34779 8.70615 9.58131 8.74327 9.82455L8.77198 10.0089C8.80025 10.1966 8.83176 10.3889 8.865 10.5862L8.96903 11.1946L10.548 9.7488C10.8772 9.15247 10.949 8.78146 10.9447 8.32045C10.943 8.22765 10.9387 8.13096 10.9326 8.03211L10.9259 7.93239C10.8994 7.51472 10.8518 7.09865 10.7833 6.68578C10.7185 6.28477 10.6391 5.89952 10.5482 5.56973C10.4975 5.37805 10.4371 5.18903 10.3674 5.0034C10.3137 4.8702 10.2556 4.73883 10.1932 4.60952L10.0141 4.79232C9.98385 4.82319 9.95277 4.85405 9.92191 4.88513L9.73327 5.07333L9.54097 5.26196L9.34738 5.44865L9.25068 5.5406L9.05946 5.71995C8.83296 5.93211 8.59997 6.13725 8.36083 6.33506V6.33549Z" fill="url(#paint6_linear_2_242)"/>
<path d="M23.5609 3.77276C23.5104 3.79347 23.4551 3.81981 23.396 3.8511L23.3038 3.90204C23.2351 3.94168 23.1675 3.98314 23.101 4.02635L22.9909 4.09973L22.8754 4.18002L22.7544 4.26765L22.6281 4.36218L22.5629 4.41204L22.4291 4.51671L22.291 4.62808L22.1479 4.74592L22.0007 4.87024L21.8492 5.0006L21.6938 5.13722L21.5347 5.27966L21.454 5.35304L21.9744 6.81916C22.5377 6.21829 23.1031 5.68326 23.6582 5.22743L23.8536 5.06901L23.8676 5.05822L23.7333 5.16743L23.6017 5.28139L23.4588 5.41045L23.3235 5.53736L23.2097 5.64678L23.1279 5.72686L22.951 5.90427L22.8064 6.05297L22.5979 6.27268L22.4869 6.39204L22.3717 6.51786L22.1904 6.71858L22.0644 6.86103C22.1938 6.87333 22.3359 6.88412 22.4869 6.89319L22.72 6.90549L22.9648 6.91563L23.2184 6.92362L23.4785 6.92923L23.7426 6.93268L23.8754 6.93376L24.1408 6.93419C24.1853 6.93419 24.2293 6.93376 24.2733 6.93355L24.5349 6.93096C24.5781 6.93053 24.6213 6.92988 24.6638 6.92901L24.9163 6.92383C25.1233 6.30657 25.1705 5.81017 25.1546 5.43937L25.149 5.34549L25.141 5.25743L25.136 5.21556L25.125 5.13592L25.1123 5.06232L25.1056 5.02758L25.0913 4.96261L25.0764 4.90326L25.0613 4.84995L25.0464 4.80247L25.0186 4.72499L24.9959 4.67124L24.9422 4.56031L24.9109 4.50117L24.8846 4.45455L24.8544 4.40362L24.8198 4.3488L24.781 4.29139L24.7387 4.23204C24.5013 3.91218 24.0955 3.55218 23.5609 3.77276V3.77276Z" fill="url(#paint7_linear_2_242)"/>
<path d="M19.3318 10.0181C19.613 9.6411 19.8929 9.27354 20.1713 8.91527C20.4616 8.54448 20.7541 8.18815 21.0502 7.84218C21.0679 7.8206 21.0854 7.79923 21.1022 7.78261C21.3842 7.45304 21.6737 7.12994 21.9705 6.81355L21.4492 5.35239L21.3862 5.41067L21.2546 5.53067C20.9948 5.77251 20.7392 6.01873 20.4877 6.26923C20.3384 6.41793 20.1873 6.57139 20.0338 6.72894L19.7231 7.05052L19.5651 7.21563C19.2647 7.53514 18.9688 7.85877 18.6774 8.18642C18.4849 8.4057 18.2939 8.62628 18.1043 8.84815L17.8833 9.10844L18.5485 11.0958L18.8116 10.7353L19.3318 10.0181V10.0181Z" fill="url(#paint8_linear_2_242)"/>
<path d="M13.6305 19.644L13.5316 19.8269L13.27 20.3148C13.226 20.3973 13.182 20.4804 13.1379 20.5641L12.9998 20.8305C12.9733 20.8797 12.9476 20.9239 12.9258 20.9735L12.7803 21.2543L12.4622 21.872C12.7212 22.0397 12.8941 22.4017 13.046 22.8087C13.0797 22.4146 12.9735 22.024 12.7091 21.6966C14.0602 21.9575 15.2876 21.7866 16.0363 20.8771C16.1013 20.7951 16.1669 20.7087 16.2284 20.6168C15.9113 20.9133 15.5643 21.0178 14.9669 20.9062L14.8993 20.8928C15.9074 20.6079 16.4429 20.2684 16.9607 19.6568C17.0917 19.5007 17.2164 19.3394 17.3345 19.1733C16.3812 19.9035 15.3856 20.0028 14.4008 19.6706L13.6305 19.644V19.644Z" fill="url(#paint9_linear_2_242)"/>
<path d="M14.082 18.2714L14.3626 17.7787L14.8262 16.9684C15.0536 16.5757 15.284 16.1848 15.5174 15.7956C15.7544 15.4016 15.9931 15.0087 16.2338 14.617C16.4799 14.2166 16.7306 13.819 16.9857 13.4243C17.2354 13.033 17.4946 12.643 17.7482 12.2571C17.841 12.1169 17.933 11.9813 18.0303 11.8419C18.19 11.6056 18.3545 11.3701 18.519 11.1346L18.544 11.0949L17.8874 9.11383L17.8503 9.16002C17.8439 9.16779 17.8367 9.17534 17.8292 9.18225C17.5603 9.50815 17.2859 9.83836 17.0196 10.1789C16.7477 10.5238 16.48 10.8739 16.2156 11.2343C15.9934 11.5384 15.7738 11.8443 15.5567 12.152L15.4283 12.3398C14.915 13.0914 14.4413 13.8694 14.0092 14.6705C13.8808 14.9101 13.7557 15.1514 13.6337 15.3944C13.5374 15.5919 13.4453 15.7948 13.3538 15.9929C13.1435 16.4568 12.9523 16.9292 12.7805 17.4087L13.4492 19.4062L13.5791 19.169L13.8452 18.692C13.8899 18.6122 13.9344 18.5315 13.9788 18.4503L14.082 18.2716V18.2714Z" fill="url(#paint10_linear_2_242)"/>
<path d="M12.7568 17.4724C12.5779 17.9718 12.4259 18.4805 12.3014 18.9961L12.2373 19.2763C12.1769 19.1375 12.0802 18.994 11.9712 18.8587L11.9045 18.7786C11.8932 18.7654 11.8819 18.7523 11.8704 18.7393L11.8013 18.6633L11.7323 18.5908L11.6645 18.5222L11.5674 18.4285L11.4789 18.3474L11.3824 18.2625L11.2954 18.1909C11.74 19.0926 12.0495 19.965 11.9941 20.7696C11.6839 20.7866 11.2827 20.6364 10.8329 20.3925C11.0265 20.6299 11.2044 20.7974 11.3544 20.9148L11.4215 20.9656C11.4323 20.9735 11.4431 20.9811 11.4536 20.9884L11.5143 21.0294L11.5704 21.0642L11.6218 21.0935L11.668 21.1175L11.7087 21.1369L11.7437 21.152L11.7592 21.1583C11.3822 21.1266 10.9646 21.2852 10.5329 21.5036L10.3885 21.5787L10.2435 21.6571C10.987 21.4728 11.573 21.4434 11.9641 21.5969C11.7684 21.9675 11.5752 22.3395 11.3844 22.7127L11.0917 23.2885C10.6369 24.192 10.1916 25.1002 9.75594 26.0131L9.45508 26.6453C9.35406 26.8587 9.25341 27.0723 9.15313 27.2861C9.35903 27.2587 9.49673 27.1393 9.5891 26.9701L9.92946 26.2479L10.2431 25.5987L10.6434 24.7833L10.9974 24.0745L11.3479 23.3817L11.6809 22.7321L12.1428 21.8438L12.471 21.2222L12.5839 21.01L12.681 20.8304L12.7695 20.6621L12.9042 20.4133L13.1807 19.9056L13.3223 19.6471L13.4531 19.4114L13.4537 19.4066L12.7853 17.4094C12.7774 17.4226 12.7706 17.4365 12.7648 17.4508L12.7568 17.4724Z" fill="url(#paint11_linear_2_242)"/>
<path d="M18.6756 11.2777L18.5716 11.431C18.5017 11.5358 18.4296 11.6407 18.358 11.7471L18.015 12.2643L17.7703 12.632L17.7081 12.7274C17.6153 12.8699 17.5218 13.0149 17.4275 13.1621L17.1411 13.6106C16.9463 13.9178 16.7539 14.2266 16.5642 14.5369L16.4168 14.7784C16.1743 15.1759 15.9345 15.575 15.6977 15.9758L15.418 16.4537C15.2768 16.6954 15.1339 16.9415 14.99 17.1944C14.9047 17.3433 14.819 17.4946 14.7327 17.6479L14.3073 18.4067L14.1769 18.6433L13.9121 19.125C13.8232 19.2875 13.7339 19.4515 13.6441 19.6173C13.6376 19.6251 13.633 19.6342 13.6305 19.644L14.4008 19.6706C14.3874 19.6639 14.3731 19.662 14.355 19.6544C15.28 19.6747 16.5845 19.1735 17.4841 18.4499C17.8985 18.1164 18.2893 17.7122 18.6687 17.2244C18.9526 16.8622 19.2239 16.455 19.4982 15.9951C19.751 15.5679 19.9867 15.1309 20.2048 14.685C19.9818 14.7631 19.73 14.808 19.458 14.8257L19.3128 14.8333C19.2804 14.8348 19.2485 14.8343 19.215 14.8346L19.1634 14.8352C20.0585 14.6349 20.682 14.0869 21.1814 13.3717C20.938 13.4897 20.5464 13.6343 20.099 13.6695C20.0379 13.6745 19.9767 13.6767 19.9154 13.6762C19.9059 13.6749 19.8962 13.6756 19.8851 13.6753L19.8677 13.674C20.1774 13.5944 20.4467 13.4947 20.6876 13.3615C20.7221 13.3443 20.7549 13.3244 20.7871 13.3039L20.8352 13.2726C20.9095 13.226 20.9796 13.1738 21.0498 13.1215L21.1805 13.0158C21.2798 12.9294 21.3756 12.8328 21.4637 12.7255L21.5198 12.6603C21.5287 12.6495 21.5371 12.6385 21.5453 12.6269L21.6165 12.5269C21.6275 12.5107 21.6385 12.4946 21.6489 12.4786C21.7688 12.3074 21.8825 12.132 21.9897 11.9526L22.0292 11.8853C22.0808 11.7968 22.1261 11.7169 22.166 11.641L22.2128 11.5516L22.2839 11.4079C22.2976 11.3797 22.3108 11.3513 22.3233 11.3226L22.3441 11.2743L22.3792 11.1871C22.3896 11.1603 22.3987 11.1355 22.4062 11.1133L22.4164 11.0815C22.3952 11.0945 22.3721 11.107 22.3471 11.1178L22.308 11.1329C22.0318 11.2462 21.5731 11.323 21.2105 11.3373C21.2058 11.3364 21.201 11.3358 21.1957 11.3399L21.1233 11.3403C21.1104 11.3408 21.0976 11.3416 21.0847 11.3429L21.105 11.3362L18.6854 11.2456C18.6873 11.265 18.681 11.2736 18.6756 11.2779V11.2777Z" fill="url(#paint12_linear_2_242)"/>
<path d="M22.0644 6.86103C21.978 6.95901 21.8887 7.06175 21.7965 7.16944L21.6083 7.39088L21.4126 7.62462L21.1762 7.90995C21.1711 7.91654 21.1664 7.92346 21.1622 7.93067C21.0273 8.09621 20.889 8.26952 20.7463 8.45146L20.5287 8.7316L20.4176 8.87707L20.1051 9.29016L19.9009 9.56383C19.7973 9.70326 19.6922 9.84657 19.5847 9.99527L19.4768 10.1453C19.3682 10.2942 19.2592 10.4474 19.1483 10.605L18.9241 10.9253L18.6931 11.2563L21.113 11.347C21.8518 11.1284 22.2046 10.8869 22.5672 10.5122C22.6422 10.4332 22.7154 10.3526 22.7867 10.2705L22.8605 10.185C23.171 9.82766 23.4631 9.45488 23.7359 9.06808C24.0025 8.69362 24.2449 8.32067 24.4337 7.9829C24.5451 7.78826 24.6467 7.58816 24.738 7.38333C24.8047 7.2247 24.8604 7.07426 24.9107 6.92793L24.6597 6.93225L24.4016 6.93484L24.1389 6.9357L23.8739 6.93484L23.7413 6.93354L23.4776 6.92966L23.218 6.92383L23.0904 6.92016L22.8411 6.9111C22.8008 6.90941 22.7605 6.90761 22.7203 6.9057L22.4872 6.89319C22.3461 6.8849 22.2051 6.87418 22.0644 6.86103V6.86103Z" fill="url(#paint13_linear_2_242)"/>
<defs>
<linearGradient id="paint0_linear_2_242" x1="7.69228" y1="5.13863" x2="11.7047" y2="3.83028" gradientUnits="userSpaceOnUse">
<stop stop-color="#F69923"/>
<stop offset="0.3123" stop-color="#F79A23"/>
<stop offset="0.8383" stop-color="#E97826"/>
</linearGradient>
<linearGradient id="paint1_linear_2_242" x1="7.37626" y1="27.1573" x2="12.3" y2="7.6117" gradientUnits="userSpaceOnUse">
<stop offset="0.3233" stop-color="#9E2064"/>
<stop offset="0.6302" stop-color="#C92037"/>
<stop offset="0.7514" stop-color="#CD2335"/>
<stop offset="1" stop-color="#E97826"/>
</linearGradient>
<linearGradient id="paint2_linear_2_242" x1="11.7916" y1="26.542" x2="15.0258" y2="10.7905" gradientUnits="userSpaceOnUse">
<stop stop-color="#282662"/>
<stop offset="0.09548" stop-color="#662E8D"/>
<stop offset="0.7882" stop-color="#9F2064"/>
<stop offset="0.9487" stop-color="#CD2032"/>
</linearGradient>
<linearGradient id="paint3_linear_2_242" x1="8.21978" y1="26.0888" x2="15.3784" y2="8.68137" gradientUnits="userSpaceOnUse">
<stop offset="0.3233" stop-color="#9E2064"/>
<stop offset="0.6302" stop-color="#C92037"/>
<stop offset="0.7514" stop-color="#CD2335"/>
<stop offset="1" stop-color="#E97826"/>
</linearGradient>
<linearGradient id="paint4_linear_2_242" x1="10.0093" y1="25.2842" x2="15.7737" y2="18.1023" gradientUnits="userSpaceOnUse">
<stop stop-color="#282662"/>
<stop offset="0.09548" stop-color="#662E8D"/>
<stop offset="0.7882" stop-color="#9F2064"/>
<stop offset="0.9487" stop-color="#CD2032"/>
</linearGradient>
<linearGradient id="paint5_linear_2_242" x1="10.4533" y1="29.1255" x2="15.7164" y2="4.21223" gradientUnits="userSpaceOnUse">
<stop offset="0.3233" stop-color="#9E2064"/>
<stop offset="0.6302" stop-color="#C92037"/>
<stop offset="0.7514" stop-color="#CD2335"/>
<stop offset="1" stop-color="#E97826"/>
</linearGradient>
<linearGradient id="paint6_linear_2_242" x1="8.93715" y1="35.2831" x2="13.8903" y2="6.45055" gradientUnits="userSpaceOnUse">
<stop offset="0.3233" stop-color="#9E2064"/>
<stop offset="0.6302" stop-color="#C92037"/>
<stop offset="0.7514" stop-color="#CD2335"/>
<stop offset="1" stop-color="#E97826"/>
</linearGradient>
<linearGradient id="paint7_linear_2_242" x1="22.07" y1="5.65239" x2="27.2778" y2="4.26439" gradientUnits="userSpaceOnUse">
<stop stop-color="#F69923"/>
<stop offset="0.3123" stop-color="#F79A23"/>
<stop offset="0.8383" stop-color="#E97826"/>
</linearGradient>
<linearGradient id="paint8_linear_2_242" x1="14.392" y1="28.0371" x2="24.9888" y2="8.62247" gradientUnits="userSpaceOnUse">
<stop offset="0.3233" stop-color="#9E2064"/>
<stop offset="0.6302" stop-color="#C92037"/>
<stop offset="0.7514" stop-color="#CD2335"/>
<stop offset="1" stop-color="#E97826"/>
</linearGradient>
<linearGradient id="paint9_linear_2_242" x1="11.4576" y1="23.8714" x2="16.2424" y2="15.8348" gradientUnits="userSpaceOnUse">
<stop stop-color="#282662"/>
<stop offset="0.09548" stop-color="#662E8D"/>
<stop offset="0.7882" stop-color="#9F2064"/>
<stop offset="0.9487" stop-color="#CD2032"/>
</linearGradient>
<linearGradient id="paint10_linear_2_242" x1="13.3118" y1="26.662" x2="24.0581" y2="8.47168" gradientUnits="userSpaceOnUse">
<stop offset="0.3233" stop-color="#9E2064"/>
<stop offset="0.6302" stop-color="#C92037"/>
<stop offset="0.7514" stop-color="#CD2335"/>
<stop offset="1" stop-color="#E97826"/>
</linearGradient>
<linearGradient id="paint11_linear_2_242" x1="10.7463" y1="25.0445" x2="16.6404" y2="16.2756" gradientUnits="userSpaceOnUse">
<stop stop-color="#282662"/>
<stop offset="0.09548" stop-color="#662E8D"/>
<stop offset="0.7882" stop-color="#9F2064"/>
<stop offset="0.9487" stop-color="#CD2032"/>
</linearGradient>
<linearGradient id="paint12_linear_2_242" x1="10.5778" y1="26.6778" x2="22.9654" y2="6.82835" gradientUnits="userSpaceOnUse">
<stop offset="0.3233" stop-color="#9E2064"/>
<stop offset="0.6302" stop-color="#C92037"/>
<stop offset="0.7514" stop-color="#CD2335"/>
<stop offset="1" stop-color="#E97826"/>
</linearGradient>
<linearGradient id="paint13_linear_2_242" x1="10.6188" y1="18.8139" x2="18.5526" y2="5.73819" gradientUnits="userSpaceOnUse">
<stop offset="0.3233" stop-color="#9E2064"/>
<stop offset="0.6302" stop-color="#C92037"/>
<stop offset="0.7514" stop-color="#CD2335"/>
<stop offset="1" stop-color="#E97826"/>
</linearGradient>
</defs>
</svg>
