<svg width="30" height="30" viewBox="0 0 30 30" fill="none" xmlns="http://www.w3.org/2000/svg">
<rect width="30" height="30" rx="5" fill="white"/>
<g clip-path="url(#clip0_2_125)">
<path d="M17.2322 5.7827C16.1537 4.53948 15.2249 3.27678 15.0352 3.01457C15.0307 3.00997 15.0252 3.00631 15.0192 3.00381C15.0132 3.0013 15.0067 3.00001 15.0002 3.00001C14.9937 3.00001 14.9872 3.0013 14.9812 3.00381C14.9752 3.00631 14.9697 3.00997 14.9652 3.01457C14.7755 3.27682 13.8467 4.53948 12.7682 5.7827C3.51064 17.2534 14.2263 24.9944 14.2263 24.9944L14.3161 25.0527C14.396 26.2474 14.5957 27.9666 14.5957 27.9666H15.3947C15.3947 27.9666 15.5944 26.2571 15.6743 25.0528L15.7642 24.9847C15.7742 24.9945 26.4898 17.2534 17.2322 5.7827V5.7827ZM14.9952 24.8196C14.9952 24.8196 14.5158 24.4214 14.386 24.2175V24.198L14.9652 11.7075C14.9652 11.6686 15.0252 11.6686 15.0252 11.7075L15.6044 24.198V24.2175C15.4746 24.4214 14.9952 24.8196 14.9952 24.8196V24.8196Z" fill="#01EC64"/>
</g>
<defs>
<clipPath id="clip0_2_125">
<rect width="12" height="25" fill="white" transform="translate(9 3)"/>
</clipPath>
</defs>
</svg>
