<svg width="500" height="325" viewBox="0 0 500 325" fill="none" xmlns="http://www.w3.org/2000/svg">
<rect width="500" height="325" rx="50" fill="white"/>
<g clip-path="url(#clip0_162_15)">
<path d="M133.821 99.0898H216.809V105.672H141.429V155.214H212.314V161.796H141.429V216.188H217.674V222.77H133.821V99.0898ZM224.244 99.0898H233.061L272.135 153.481L312.073 99.0898L366.395 30L277.149 159.198L323.138 222.77H313.975L272.135 164.914L230.122 222.77H221.132L267.467 159.198L224.244 99.0898ZM326.423 105.672V99.0898H420.995V105.672H377.426V222.77H369.819V105.672H326.423ZM30 99.0898H39.509L170.633 294.901L116.446 222.77L37.953 108.444L37.6072 222.77H30V99.0898ZM420.228 214.201C418.674 214.201 417.508 212.999 417.508 211.446C417.508 209.893 418.674 208.692 420.228 208.692C421.801 208.692 422.948 209.893 422.948 211.446C422.948 212.999 421.801 214.201 420.228 214.201ZM427.703 206.954H431.774C431.829 209.154 433.439 210.633 435.807 210.633C438.453 210.633 439.952 209.043 439.952 206.066V187.208H444.096V206.085C444.096 211.446 440.988 214.534 435.844 214.534C431.015 214.534 427.703 211.539 427.703 206.954ZM449.518 206.713H453.625C453.977 209.246 456.456 210.855 460.027 210.855C463.358 210.855 465.8 209.135 465.8 206.769C465.8 204.735 464.246 203.515 460.712 202.683L457.27 201.851C452.441 200.723 450.239 198.393 450.239 194.474C450.239 189.722 454.125 186.561 459.953 186.561C465.374 186.561 469.334 189.722 469.574 194.215H465.541C465.152 191.756 463.006 190.222 459.898 190.222C456.623 190.222 454.439 191.793 454.439 194.197C454.439 196.101 455.846 197.192 459.324 198.005L462.266 198.726C467.743 200.002 470 202.221 470 206.233C470 211.335 466.04 214.534 459.713 214.534C453.792 214.534 449.814 211.483 449.518 206.713Z" fill="black"/>
</g>
<defs>
<clipPath id="clip0_162_15">
<rect width="440" height="265" fill="white" transform="translate(30 30)"/>
</clipPath>
</defs>
</svg>
