<svg width="500" height="500" viewBox="0 0 500 500" fill="none" xmlns="http://www.w3.org/2000/svg">
<g clip-path="url(#clip0_131_36)">
<path d="M414.5 -50L59.5 -88C-5.22087 -88 -57.6875 -35.5334 -57.6875 29.1875L-77.1875 420.812C-77.1875 485.533 -24.7209 538 40 538L440.5 576C505.221 576 557.688 523.533 557.688 458.812L531.688 67.1875C531.688 2.46663 479.221 -50 414.5 -50Z" fill="white"/>
<g clip-path="url(#clip1_131_36)">
<path d="M425.203 361.688L277.969 48.5229C276.139 44.6696 273.304 41.3833 269.762 39.0119C266.221 36.6404 262.105 35.272 257.85 35.0514C253.588 34.7653 249.329 35.6552 245.536 37.6244C241.743 39.5936 238.562 42.5667 236.339 46.2203L76.6486 305.273C74.2204 309.185 72.9559 313.708 73.0032 318.314C73.0506 322.92 74.4078 327.416 76.9159 331.277L154.989 452.372C157.943 456.918 162.284 460.385 167.367 462.257C172.449 464.13 177.999 464.306 183.19 462.76L409.76 395.636C413.172 394.637 416.329 392.916 419.02 390.589C421.71 388.263 423.87 385.385 425.354 382.15C426.818 378.932 427.563 375.434 427.539 371.898C427.515 368.362 426.721 364.874 425.214 361.677L425.203 361.688ZM392.24 375.119L199.982 432.059C194.117 433.807 188.487 428.715 189.707 422.787L258.396 93.3733C259.68 87.2104 268.178 86.2339 270.865 91.9376L398.019 362.384C398.581 363.589 398.875 364.902 398.882 366.232C398.888 367.562 398.607 368.878 398.057 370.088C397.506 371.299 396.7 372.375 395.694 373.243C394.688 374.112 393.506 374.751 392.23 375.118L392.24 375.119Z" fill="black"/>
</g>
</g>
<defs>
<clipPath id="clip0_131_36">
<rect width="500" height="500" fill="white"/>
</clipPath>
<clipPath id="clip1_131_36">
<rect width="354.543" height="430" fill="white" transform="translate(73 35)"/>
</clipPath>
</defs>
</svg>
