<svg width="30" height="30" viewBox="0 0 30 30" fill="none" xmlns="http://www.w3.org/2000/svg">
<rect width="30" height="30" rx="5" fill="white"/>
<path d="M17.9026 5.22945C17.8604 5.24211 17.6389 5.31594 17.4048 5.39187C16.1518 5.80109 15.2637 6.2757 15.0444 6.65328C14.96 6.79672 14.9452 6.91484 14.9937 7.03086C15.0486 7.16164 15.1498 7.26289 15.4283 7.45906C15.5591 7.55187 15.7805 7.74172 15.9261 7.88516C16.6159 8.57281 16.9491 9.41656 16.9112 10.37C16.869 11.4437 16.3648 12.5173 15.403 13.5889C15.0676 13.9644 14.7216 14.2766 14.0614 14.806C13.5109 15.2469 13.2113 15.5337 13.0067 15.8101C12.3802 16.6623 12.549 17.4216 13.5024 18.0566C14.3441 18.6177 15.827 19.0838 17.5777 19.337C18.1641 19.4213 18.8265 19.4762 18.9868 19.453L19.0986 19.4361L19.2737 19.1197C20.1617 17.5229 20.6089 16.0147 20.6637 14.4559C20.687 13.7598 20.6005 12.9371 20.4507 12.4562C20.4233 12.3697 20.4043 12.2959 20.4064 12.2937C20.4085 12.2916 20.6574 12.2157 20.957 12.1271C22.5369 11.6567 24.0662 11.2855 25.3297 11.0661C25.5765 11.0239 25.7853 10.9796 25.7959 10.9691C25.8634 10.9037 25.6672 10.5957 25.3466 10.2666C24.1653 9.04742 22.077 8.1193 19.6259 7.72273C19.1534 7.6468 19.0965 7.61937 18.9214 7.38734C18.643 7.0182 18.3814 6.38961 18.0249 5.23578C18.0144 5.19781 18.0038 5.19781 17.9026 5.22945V5.22945ZM18.065 5.66398C18.2021 6.03945 18.2865 6.33266 18.2865 6.43602V6.51828L18.1705 6.50562C17.5398 6.4318 16.5315 6.2757 16.3163 6.21875C16.2615 6.20398 16.2298 6.18289 16.2404 6.16601C16.2573 6.1407 16.4703 6.03734 17.1073 5.74836C17.7001 5.47836 17.9258 5.37922 17.9448 5.37711C17.9532 5.375 18.0059 5.50578 18.065 5.66398ZM16.7298 6.455C17.4997 6.61742 18.0629 6.71867 18.1852 6.71867C18.3055 6.71867 18.2928 6.72922 17.7254 7.07516C17.2887 7.34094 17.2381 7.36625 17.1284 7.36625H17.0082L16.6834 7.0393C16.291 6.64273 16.0252 6.35164 16.0252 6.31789C16.0252 6.30523 16.0337 6.30101 16.0442 6.30734C16.0548 6.30945 16.3648 6.37695 16.7298 6.455V6.455ZM16.1602 6.81992C16.3501 7.04141 16.4956 7.22703 16.4872 7.23336C16.4703 7.24812 15.9303 7.11523 15.6012 7.01398C15.3123 6.92539 15.2785 6.89586 15.3545 6.79672C15.4051 6.73133 15.7763 6.42125 15.8037 6.41914C15.8122 6.41914 15.9704 6.59844 16.1602 6.81992V6.81992ZM18.6198 7.27555C18.6957 7.45484 18.7527 7.60039 18.7505 7.6025C18.7463 7.60461 17.7338 7.44851 17.6452 7.43164C17.6262 7.42742 17.7971 7.31141 18.0291 7.17008C18.2612 7.02875 18.4552 6.92328 18.4658 6.93383C18.4763 6.94437 18.5438 7.09625 18.6198 7.27555V7.27555ZM16.4112 7.61726C16.4302 7.63625 16.6728 8.41461 16.6623 8.42516C16.658 8.42937 16.5441 8.29648 16.407 8.12773C16.2699 7.95898 16.0632 7.72062 15.943 7.59828L15.7278 7.37258L16.0611 7.48859C16.2467 7.54976 16.4028 7.60883 16.4112 7.61726V7.61726ZM17.3795 7.72062C17.7992 7.77969 18.1473 7.83453 18.1536 7.84086C18.1599 7.84719 17.9047 8.04547 17.5904 8.27961C17.274 8.51375 17.0145 8.70359 17.0103 8.69937C17.0061 8.69516 16.9745 8.59812 16.9386 8.48C16.9027 8.36398 16.8141 8.12141 16.7403 7.94C16.6665 7.75859 16.6074 7.61094 16.6116 7.61094C16.6137 7.61094 16.9597 7.66156 17.3795 7.72062V7.72062ZM18.4341 8.05601C18.527 8.27328 18.5628 8.48 18.5776 8.89555C18.586 9.11914 18.586 9.30055 18.5797 9.30055C18.5712 9.30055 18.4384 9.25414 18.2844 9.1993C17.9764 9.0875 17.3731 8.88922 17.3014 8.87445C17.2698 8.86812 17.4153 8.72891 17.7992 8.39984C18.0966 8.1425 18.3498 7.93367 18.3624 7.93367C18.373 7.93367 18.4046 7.98851 18.4341 8.05601V8.05601ZM19.5162 8.10875C19.9803 8.20367 20.3874 8.28805 20.4191 8.29648C20.4655 8.30703 20.3537 8.37664 19.8622 8.64664C19.5247 8.83226 19.1408 9.0432 19.01 9.11703C18.8792 9.19086 18.7695 9.24781 18.7674 9.2457C18.7653 9.24359 18.778 9.17398 18.797 9.09172C18.8666 8.79008 18.8223 8.41461 18.683 8.11508C18.643 8.02859 18.6092 7.95055 18.6092 7.94633C18.6113 7.92312 18.6957 7.94 19.5162 8.10875V8.10875ZM20.784 8.67617C20.7608 8.78164 20.708 8.96094 20.668 9.07695C20.5794 9.33219 20.2545 9.99664 20.2102 10.0135C20.1934 10.0198 20.0394 9.95023 19.8727 9.85742C19.7061 9.76461 19.4635 9.64226 19.337 9.58531L19.1049 9.48195L19.955 8.93562C20.6595 8.48422 20.8072 8.39773 20.8156 8.43781C20.822 8.46523 20.8072 8.5707 20.784 8.67617V8.67617ZM21.4062 8.48211C22.288 8.73523 23.2203 9.07695 23.1655 9.12758C23.1549 9.13812 23.0389 9.17609 22.9102 9.21195C22.2437 9.39969 21.3177 9.72031 20.8852 9.91226C20.7502 9.97133 20.6342 10.0156 20.6279 10.0072C20.6216 10.0009 20.6743 9.8068 20.746 9.57476C20.8852 9.11914 21.0477 8.50531 21.0477 8.42726C21.0477 8.39351 21.0603 8.38086 21.092 8.3893C21.113 8.39773 21.2544 8.43992 21.4062 8.48211V8.48211ZM17.6115 9.39758C17.8119 9.46297 18.0481 9.55367 18.1346 9.59797C18.2907 9.67601 18.2928 9.67812 18.2485 9.72664C18.1684 9.81523 17.293 10.6316 17.2677 10.64C17.255 10.6442 17.2445 10.5219 17.2445 10.3426C17.2445 10.0325 17.2086 9.47141 17.1812 9.34695C17.1601 9.25203 17.177 9.25414 17.6115 9.39758V9.39758ZM23.214 9.56C23.022 9.87851 22.7035 10.332 22.4757 10.6189C22.2416 10.9121 21.7459 11.4627 21.7163 11.4627C21.7058 11.4627 21.6341 11.3741 21.556 11.2644C21.2734 10.8615 20.9464 10.5134 20.6595 10.3109C20.6321 10.292 20.6152 10.2709 20.6216 10.2645C20.6279 10.2582 21.0983 10.0852 21.6657 9.87851C22.8132 9.46297 23.3195 9.29422 23.3511 9.31531C23.3553 9.31742 23.2941 9.42711 23.214 9.56V9.56ZM23.9312 9.50516C24.7243 10.0578 25.2622 10.505 25.4562 10.7729C25.5048 10.8404 25.5406 10.8973 25.5364 10.9016C25.5322 10.9058 25.277 10.9332 24.969 10.9648C23.7392 11.0851 22.8638 11.2095 22.3998 11.3277C22.2753 11.3593 22.172 11.3825 22.1698 11.3804C22.1677 11.3783 22.25 11.277 22.3534 11.1526C22.8891 10.5092 23.3743 9.84055 23.5536 9.4925C23.6021 9.39969 23.6485 9.32586 23.657 9.32586C23.6675 9.32586 23.7898 9.40602 23.9312 9.50516V9.50516ZM19.493 10.1907C19.6449 10.273 19.7609 10.3468 19.7546 10.3595C19.742 10.3827 18.4067 11.1146 18.3941 11.1041C18.392 11.102 18.4595 10.8826 18.548 10.6147C18.6366 10.3468 18.721 10.0557 18.7379 9.96711L18.7674 9.80469L18.9931 9.92492C19.1176 9.99031 19.3412 10.1084 19.493 10.1907V10.1907ZM18.373 10.2329C18.2443 10.6801 17.9827 11.258 17.8625 11.3572C17.8351 11.3804 17.7802 11.3487 17.6052 11.2053C17.4807 11.1062 17.3541 11.007 17.3204 10.9838C17.2887 10.9606 17.2634 10.9374 17.2698 10.9311C17.3626 10.8404 18.4257 9.98187 18.432 9.99453C18.4341 10.003 18.4088 10.1105 18.373 10.2329V10.2329ZM20.7945 11.0112C20.9949 11.1462 21.4421 11.5449 21.4189 11.5702C21.4126 11.5766 20.9591 11.7242 20.4127 11.8972C19.8664 12.0702 19.2568 12.2663 19.0585 12.3317C18.8602 12.3992 18.6957 12.4498 18.6936 12.4477C18.6915 12.4456 18.8307 12.2874 19.0016 12.0955C19.4487 11.5955 19.9086 11.0619 20.0731 10.8509L20.2145 10.6695L20.398 10.7687C20.4971 10.8235 20.6764 10.9332 20.7945 11.0112V11.0112ZM19.7588 10.7244C19.7462 10.7412 19.6259 10.8931 19.4909 11.064C19.3559 11.2348 19.0311 11.6504 18.7695 11.9879L18.2928 12.6017L18.278 12.4984C18.2485 12.298 18.1409 11.9035 18.0798 11.7706L18.0186 11.6356L18.3223 11.4837C18.6345 11.3277 19.2884 10.9733 19.5943 10.794C19.782 10.6843 19.7947 10.678 19.7588 10.7244V10.7244ZM17.2276 11.4669C17.352 11.5302 17.468 11.6145 17.468 11.6398C17.468 11.6799 16.6602 12.3043 16.637 12.2811C16.6327 12.2748 16.7045 12.1313 16.7994 11.9605C16.8943 11.7896 16.9892 11.5977 17.0124 11.5323C17.0356 11.4669 17.0694 11.4141 17.0884 11.4141C17.1073 11.412 17.1685 11.4373 17.2276 11.4669V11.4669ZM17.9152 12.2347C17.9701 12.3444 18.0291 12.6502 17.9996 12.6777C17.987 12.6882 17.6537 12.8464 17.2571 13.0299C16.8605 13.2113 16.3437 13.456 16.1075 13.5741C15.8712 13.6923 15.692 13.7745 15.7109 13.7598C15.7278 13.745 15.9873 13.5256 16.2889 13.2767C16.8711 12.7937 17.5334 12.2157 17.6537 12.087L17.7275 12.009L17.7992 12.0765C17.8372 12.1145 17.8899 12.1862 17.9152 12.2347V12.2347ZM17.2634 12.2284C17.2065 12.2811 16.8943 12.5511 16.5737 12.8295C16.253 13.108 15.867 13.4434 15.7173 13.5741C15.4135 13.8378 15.4135 13.8378 15.8016 13.3337C16.1012 12.9434 16.2573 12.7979 16.6876 12.5089C16.8964 12.3697 17.312 12.1334 17.3541 12.1334C17.3605 12.1334 17.3204 12.1756 17.2634 12.2284ZM20.2735 12.4941C20.2883 12.5764 20.3094 12.8316 20.3178 13.0595L20.3326 13.475L20.2355 13.4307C19.9023 13.2767 18.9657 12.7494 19.0016 12.7346C19.2062 12.6523 20.2166 12.317 20.2292 12.3296C20.2377 12.338 20.2587 12.4119 20.2735 12.4941ZM19.4804 13.2387C19.8706 13.4687 20.1934 13.6585 20.1976 13.6627C20.2018 13.667 20.1512 13.7091 20.0879 13.7555C19.9634 13.8462 18.643 14.5297 18.624 14.5128C18.6177 14.5065 18.6366 14.3926 18.6641 14.2618C18.7189 13.996 18.7653 13.2029 18.7442 12.9519C18.7358 12.8633 18.74 12.8 18.7527 12.8084C18.7611 12.8148 19.0902 13.0088 19.4804 13.2387V13.2387ZM18.4025 13.07C18.432 13.3168 18.3962 13.8125 18.3287 14.072C18.2506 14.3757 18.2042 14.5023 18.1705 14.5128C18.1241 14.5276 17.8351 14.266 17.66 14.0466C17.4828 13.8252 17.2487 13.4096 17.2845 13.3759C17.3056 13.3548 18.335 12.9308 18.3687 12.9308C18.3772 12.9287 18.392 12.992 18.4025 13.07V13.07ZM17.139 13.6902C17.2487 13.9159 17.4976 14.2407 17.7697 14.517C17.9448 14.6942 17.9891 14.7512 17.9616 14.7702C17.8393 14.8524 17.2909 15.1098 16.9449 15.2448C16.5252 15.4093 15.9788 15.5991 15.9662 15.5823C15.962 15.5759 16.0864 15.3481 16.2446 15.076C16.5863 14.4833 17.0187 13.6416 17.0187 13.572C17.0209 13.4855 17.0567 13.5214 17.139 13.6902V13.6902ZM16.4914 13.7049C16.4851 13.7218 16.4323 13.8526 16.3754 13.996C16.1328 14.612 15.6603 15.4494 15.5548 15.4494C15.4726 15.4494 15.3523 14.9621 15.3186 14.4938L15.3017 14.2576L15.8797 13.9665C16.1982 13.8062 16.4682 13.6754 16.4809 13.6754C16.4935 13.6733 16.4977 13.688 16.4914 13.7049ZM20.3495 14.2745C20.3516 14.6288 20.2039 15.4873 20.1237 15.5738C20.09 15.6097 19.7251 15.4747 19.3939 15.3038C19.0986 15.152 18.6113 14.8503 18.6113 14.8187C18.6113 14.8102 18.6852 14.7723 18.778 14.7343C18.953 14.6605 19.7694 14.2238 20.1153 14.0192L20.3136 13.9011L20.3305 13.9918C20.3389 14.0424 20.3473 14.1711 20.3495 14.2745V14.2745ZM14.9052 14.6837C14.9389 14.9642 15.0254 15.308 15.133 15.5802C15.1773 15.692 15.2089 15.789 15.2026 15.7932C15.1604 15.8312 13.4244 16.31 13.1945 16.3459L13.0848 16.3627L13.1016 16.2784C13.1248 16.1581 13.2936 15.8164 13.418 15.6308C13.5741 15.4009 13.958 15.0148 14.2112 14.8355C14.401 14.7027 14.8566 14.4348 14.8693 14.4516C14.8777 14.4537 14.8904 14.5571 14.9052 14.6837V14.6837ZM18.8434 15.2764C19.3791 15.5337 19.5816 15.6223 19.839 15.7109L20.0352 15.7784L19.9107 15.8417C19.2083 16.1982 17.9637 16.7045 17.6431 16.7677C17.5714 16.7825 17.5609 16.7783 17.5756 16.7424C17.6305 16.599 18.373 15.0655 18.3877 15.0655C18.3962 15.0655 18.6029 15.1604 18.8434 15.2764V15.2764ZM17.9005 15.2195C17.8625 15.4009 17.6579 15.9852 17.5398 16.2509C17.4364 16.483 17.198 16.9323 17.1559 16.9745C17.1369 16.9934 16.7129 16.7551 16.5125 16.6116C16.2868 16.4513 15.7932 15.9746 15.808 15.9303C15.8143 15.9134 16.1138 15.7974 16.4766 15.673C17.2402 15.4093 17.6663 15.2511 17.7908 15.1857C17.9089 15.1224 17.9195 15.1266 17.9005 15.2195V15.2195ZM20.0352 16.0252C20.0288 16.078 19.9845 16.3079 19.9381 16.542C19.7926 17.2719 19.6154 17.7718 19.5036 17.7718C19.3475 17.7718 18.2844 17.5145 17.9405 17.3921C17.7064 17.3098 17.506 17.2149 17.4385 17.158C17.3963 17.1221 17.4195 17.1095 17.7233 16.985C18.7062 16.5842 19.8411 16.0716 19.9634 15.9746C20.0373 15.9155 20.0478 15.924 20.0352 16.0252V16.0252ZM15.057 16.2488C14.9452 16.4492 14.7174 16.7783 14.2808 17.3668L13.9095 17.8688L13.7977 17.7887C13.6416 17.6769 13.3927 17.4069 13.2894 17.236C13.1776 17.0525 13.1016 16.8247 13.0932 16.6517L13.0869 16.5167L13.2704 16.4977C13.5193 16.4724 14.2175 16.329 14.7132 16.1982C14.9389 16.1391 15.1266 16.0948 15.1309 16.097C15.133 16.1033 15.1013 16.1708 15.057 16.2488V16.2488ZM16.1391 16.7656C16.2636 16.8542 16.4345 16.9681 16.5209 17.0187L16.6791 17.1116L16.6074 17.1411C16.5673 17.158 15.9894 17.3689 15.3207 17.6094C14.1795 18.0207 14.1057 18.046 14.0741 18.0038C14.0551 17.9785 14.0424 17.9532 14.0445 17.9448C14.0466 17.9363 14.3546 17.5377 14.7301 17.0588L15.4114 16.1877L15.6624 16.3965C15.8037 16.5125 16.0147 16.677 16.1391 16.7656ZM16.4197 18.0755C16.1708 18.4489 15.9598 18.7632 15.9514 18.7716C15.9324 18.797 15.5337 18.7041 15.2363 18.6029C14.9241 18.4974 14.5381 18.3034 14.3862 18.1726L14.2766 18.0777L14.5234 18.0102C15.5295 17.7359 16.8605 17.3837 16.8669 17.3879C16.8711 17.3921 16.6686 17.7022 16.4197 18.0755V18.0755ZM17.6157 17.5102C18.1494 17.6937 18.6345 17.7971 19.2652 17.8646L19.4382 17.8836L18.9678 18.0523C17.795 18.4763 16.8437 18.7737 16.367 18.8666C16.232 18.8919 16.1096 18.9151 16.097 18.9151C16.0843 18.9151 16.1792 18.7843 16.31 18.624C16.6686 18.1873 17.0567 17.6895 17.1601 17.5355C17.2107 17.4617 17.2613 17.3984 17.2719 17.3984C17.2845 17.4005 17.4385 17.4491 17.6157 17.5102V17.5102ZM19.3644 18.4974C19.1619 19.0184 19.0142 19.337 18.9636 19.3559C18.8645 19.3939 17.4786 19.1914 17.0546 19.0754C16.7741 18.9995 16.5948 18.9256 16.6475 18.9066C16.6686 18.9003 16.869 18.8518 17.0947 18.8012C17.8266 18.6366 18.9446 18.297 19.4087 18.0987C19.4677 18.0734 19.5205 18.0545 19.5247 18.0587C19.5289 18.0629 19.4572 18.2591 19.3644 18.4974V18.4974ZM11.1695 18.9383C11.0703 18.9805 11.0239 19.0627 11.0134 19.2167C11.0028 19.3602 11.0028 19.3623 10.9311 19.3623C10.8594 19.3623 10.8573 19.3665 10.8657 19.4677C10.872 19.5627 10.8805 19.5732 10.9416 19.5816L11.0091 19.5901V20.3621L11.1252 20.3516L11.2433 20.3431L11.2517 19.9634L11.2602 19.5837H11.6061V19.8622C11.6061 20.2081 11.642 20.2988 11.7917 20.3495C11.8592 20.3727 11.9225 20.3769 11.99 20.3621C12.0849 20.3431 12.0891 20.3368 12.0976 20.2355L12.106 20.128L12.0237 20.1427C11.8803 20.168 11.8719 20.1512 11.8761 19.801L11.8782 19.5859H11.9499C12.0744 19.5859 12.1018 19.5627 12.1018 19.4593V19.3623H11.8782V19.2695C11.8782 19.1323 11.855 19.1091 11.7263 19.1176L11.6166 19.1239L11.6082 19.242L11.5998 19.3602H11.2559V19.2758C11.2559 19.1598 11.3171 19.1028 11.4226 19.1239C11.5027 19.1387 11.5048 19.1387 11.5048 19.0564C11.5048 19.0121 11.4901 18.9594 11.4753 18.9425C11.4416 18.913 11.2433 18.9087 11.1695 18.9383V18.9383ZM5.67242 18.9784C5.56484 19.0543 5.61758 19.2125 5.75258 19.2125C5.8918 19.2125 5.91711 19.1935 5.91711 19.0859C5.915 18.9488 5.79266 18.894 5.67242 18.9784ZM3.8457 19.0459C3.80773 19.0733 3.80351 19.1366 3.80984 19.7103L3.81617 20.3431L3.9343 20.3516L4.05242 20.36V19.8095C4.05242 19.5057 4.05875 19.2631 4.06508 19.2695C4.07351 19.2758 4.14523 19.4762 4.2275 19.7145C4.30976 19.9529 4.39414 20.1955 4.41523 20.2545L4.45531 20.3621L4.57976 20.3516L4.70422 20.3431L4.89406 19.8158L5.08391 19.2884L5.09656 19.8158C5.105 20.1069 5.11344 20.3473 5.11555 20.3516C5.11766 20.3558 5.17461 20.3558 5.23789 20.3516L5.35601 20.3431L5.36234 19.7124C5.36656 19.2673 5.36023 19.0712 5.33914 19.0459C5.29484 18.991 5.0143 19.0016 4.96367 19.0585C4.94258 19.0838 4.85398 19.2884 4.76961 19.512C4.68523 19.7356 4.6093 19.9276 4.60086 19.9381C4.59242 19.9487 4.51859 19.7694 4.43633 19.5416C4.35406 19.3095 4.26336 19.1028 4.23172 19.0712C4.18742 19.0269 4.14945 19.0142 4.03133 19.0142C3.95328 19.0142 3.86891 19.029 3.8457 19.0459V19.0459ZM6.40226 19.3623C6.22086 19.4213 6.11328 19.6091 6.11328 19.8727C6.11328 20.168 6.22508 20.3284 6.46133 20.3684C6.56891 20.3874 6.75242 20.3452 6.8157 20.2883C6.85789 20.2503 6.87687 20.109 6.84312 20.0773C6.83469 20.0689 6.78828 20.0837 6.73976 20.1111C6.56047 20.2081 6.42758 20.1533 6.38539 19.9655C6.35797 19.8411 6.3875 19.6808 6.45289 19.6112C6.50562 19.5542 6.6364 19.55 6.73765 19.6027C6.83258 19.6512 6.86 19.6344 6.86 19.5247C6.86 19.4635 6.84523 19.4298 6.80094 19.4023C6.725 19.3496 6.50141 19.3306 6.40226 19.3623V19.3623ZM7.37047 19.4129C7.28398 19.4888 7.28398 19.4888 7.27555 19.4319C7.26922 19.3834 7.25234 19.3728 7.16164 19.3665L7.05617 19.358V20.3537H7.30508V20.0457C7.30508 19.7377 7.30508 19.7377 7.3789 19.6576C7.44008 19.5922 7.4675 19.5795 7.54133 19.588C7.63414 19.5985 7.65312 19.5774 7.65312 19.4614C7.65312 19.318 7.50969 19.2927 7.37047 19.4129V19.4129ZM8.05812 19.3665C7.85773 19.4255 7.73539 19.6597 7.7607 19.936C7.7839 20.1912 7.91469 20.3368 8.15094 20.3705C8.56859 20.4275 8.8407 20.0858 8.72258 19.6555C8.65086 19.4023 8.36398 19.2758 8.05812 19.3665V19.3665ZM8.34922 19.5605C8.48 19.6302 8.51375 19.9339 8.40617 20.0773C8.33867 20.1659 8.1889 20.1828 8.0982 20.1111C8.04336 20.0668 8.03914 20.0457 8.03914 19.8601C8.03914 19.6681 8.04336 19.6534 8.10875 19.5964C8.18047 19.5331 8.27328 19.5205 8.34922 19.5605V19.5605ZM9.08328 19.3728C8.95672 19.4277 8.91031 19.5015 8.91031 19.6386C8.91031 19.7862 8.95672 19.8411 9.1782 19.9466C9.30476 20.0077 9.33219 20.0309 9.33219 20.0837C9.33219 20.128 9.3132 20.1533 9.26258 20.1702C9.1993 20.1912 9.14023 20.1807 8.93984 20.1174C8.90187 20.1048 8.89555 20.1153 8.90187 20.1997C8.9082 20.2798 8.92297 20.303 8.98414 20.3326C9.0875 20.3832 9.33641 20.379 9.43976 20.3241C9.58953 20.244 9.63594 20.0014 9.52625 19.8791C9.50094 19.8516 9.41023 19.7947 9.31953 19.7525C9.155 19.6745 9.11492 19.6175 9.17187 19.55C9.20984 19.5057 9.32164 19.5057 9.43344 19.5521C9.50726 19.5837 9.52203 19.5837 9.53469 19.5542C9.56 19.4867 9.53047 19.4066 9.4693 19.3749C9.38703 19.3306 9.17609 19.3306 9.08328 19.3728V19.3728ZM10.0895 19.3559C9.87008 19.434 9.77094 19.5669 9.74984 19.8031C9.72453 20.0942 9.83 20.2798 10.0578 20.3473C10.4396 20.4591 10.737 20.2377 10.7349 19.8432C10.7328 19.6048 10.6252 19.4298 10.4396 19.3665C10.3531 19.337 10.157 19.3306 10.0895 19.3559V19.3559ZM10.3784 19.5964C10.4438 19.6512 10.448 19.6681 10.448 19.8432C10.448 20.0077 10.4417 20.0373 10.3869 20.0942C10.3088 20.1765 10.1612 20.1828 10.0873 20.109C10.0241 20.0457 10.0051 19.9634 10.0198 19.7926C10.0283 19.6808 10.0452 19.6428 10.0979 19.5943C10.1865 19.5184 10.2898 19.5205 10.3784 19.5964V19.5964ZM5.64711 19.8516L5.65344 20.3452H5.90234V19.3749L5.77156 19.3686L5.64078 19.3602L5.64711 19.8516ZM4.45953 20.9654C4.14101 21.035 3.90055 21.2101 3.77398 21.4695C3.69594 21.6277 3.69172 21.6509 3.69172 21.9083C3.69172 22.1572 3.69805 22.1952 3.75922 22.3217C3.89211 22.5938 4.1368 22.7858 4.64726 23.0178C5.20414 23.2709 5.35601 23.427 5.35601 23.7498C5.35601 24.043 5.21891 24.218 4.91726 24.3109C4.61773 24.4037 4.3182 24.3594 3.93008 24.1653C3.80141 24.0999 3.68539 24.043 3.67695 24.0387C3.66641 24.0345 3.6432 24.0493 3.62 24.0704C3.57359 24.1189 3.56516 24.3594 3.60945 24.4395C3.70226 24.6146 4.18953 24.777 4.61351 24.777C5.41086 24.777 5.92555 24.3024 5.88336 23.6042C5.87492 23.4523 5.85594 23.3785 5.79266 23.252C5.6682 23.0009 5.50789 22.8702 5.02062 22.6318C4.79492 22.5221 4.54812 22.3892 4.47008 22.3365C4.16211 22.1298 4.09039 21.7775 4.30766 21.5328C4.42789 21.3957 4.55023 21.3514 4.80125 21.3493C5.03961 21.3493 5.13664 21.3746 5.41086 21.5138C5.64711 21.6341 5.6682 21.6235 5.6682 21.3894C5.6682 21.1784 5.65555 21.1595 5.44039 21.0603C5.15562 20.9359 4.77383 20.8979 4.45953 20.9654V20.9654ZM7.7839 20.9506C7.31351 21.0266 6.9507 21.2544 6.70812 21.6277C6.58578 21.8176 6.51828 21.9948 6.455 22.2943C6.38539 22.6212 6.40226 23.349 6.48453 23.6485C6.68703 24.3847 7.14055 24.7391 7.9168 24.7728C8.32601 24.7897 8.48422 24.7602 8.885 24.5893C8.89976 24.583 8.96726 24.6252 9.03476 24.6821C9.29211 24.9057 9.85742 25.2263 10.0557 25.2643C10.178 25.2875 10.2118 25.2474 10.2118 25.0745C10.2118 24.9943 10.2055 24.912 10.197 24.8888C10.1886 24.8656 10.0705 24.7918 9.93125 24.7222C9.7182 24.6167 9.29211 24.3425 9.29211 24.3109C9.29211 24.3045 9.33219 24.2497 9.37859 24.1864C9.57898 23.9248 9.69922 23.5599 9.74141 23.0874C9.77305 22.7267 9.74351 22.3407 9.66125 22.0412C9.51148 21.4991 9.14656 21.1257 8.63187 20.9865C8.46101 20.9443 7.97164 20.9211 7.7839 20.9506V20.9506ZM8.53062 21.4252C8.82594 21.5349 9.02211 21.7585 9.13601 22.1066C9.19297 22.2816 9.20351 22.3618 9.21406 22.733C9.22883 23.2309 9.19086 23.4713 9.06008 23.7498C8.85125 24.197 8.39351 24.4205 7.85984 24.3383C7.1975 24.237 6.90641 23.7371 6.94016 22.7562C6.95914 22.193 7.06039 21.8977 7.32195 21.6488C7.47594 21.5012 7.58773 21.4358 7.76703 21.3915C7.97375 21.3366 8.34078 21.3535 8.53062 21.4252V21.4252ZM14.5065 20.9675C14.2006 21.0413 13.9412 21.2312 13.8294 21.459C13.7028 21.7205 13.6986 22.0897 13.8188 22.328C13.9602 22.6086 14.15 22.7541 14.7406 23.0347C15.1878 23.2477 15.3376 23.3722 15.3987 23.581C15.4705 23.8278 15.3777 24.0852 15.1709 24.2202C14.8482 24.429 14.3884 24.3952 13.8969 24.1273C13.6754 24.0071 13.6437 24.0198 13.6437 24.2328C13.6437 24.4311 13.6712 24.4902 13.8062 24.5682C14.2217 24.8129 14.9136 24.8445 15.3439 24.642C15.8628 24.3973 16.097 23.754 15.8523 23.2435C15.8206 23.1781 15.732 23.0642 15.6519 22.9862C15.5295 22.8659 15.4325 22.8069 15.0233 22.6065C14.3441 22.2732 14.2091 22.1298 14.2491 21.7902C14.2702 21.6214 14.3588 21.497 14.5149 21.4189C14.6225 21.3641 14.6816 21.3535 14.8461 21.3535C15.0908 21.3535 15.1899 21.3788 15.4367 21.5054C15.6477 21.613 15.692 21.6214 15.7152 21.5623C15.7447 21.4885 15.7299 21.2417 15.6941 21.189C15.6455 21.1215 15.3987 21.0118 15.1899 20.9675C14.9811 20.9232 14.6942 20.9211 14.5065 20.9675ZM10.64 21.0076C10.6168 21.0308 10.6105 21.4674 10.6105 22.8216V24.6062L10.6716 24.6673L10.7328 24.7285H11.6145C12.2895 24.7285 12.5005 24.7201 12.5216 24.6969C12.5595 24.6484 12.5764 24.5028 12.5553 24.4058L12.5363 24.3193L11.8297 24.3066L11.123 24.294L11.1167 22.655C11.1125 21.383 11.1041 21.0118 11.0809 20.997C11.0281 20.9675 10.6737 20.9738 10.64 21.0076V21.0076ZM17.2698 21.9399C17.1495 21.9589 16.9091 22.0538 16.8099 22.1213C16.5716 22.2837 16.4028 22.5432 16.3079 22.8912C16.2488 23.1127 16.2488 23.6591 16.3079 23.8848C16.4302 24.3467 16.7002 24.6273 17.1305 24.7412C17.3183 24.7897 17.7929 24.7897 18.0249 24.7412C18.2443 24.6948 18.4721 24.6104 18.5143 24.5619C18.5544 24.5155 18.5523 24.2645 18.5122 24.2244C18.4911 24.2033 18.4257 24.218 18.2506 24.2771C17.5777 24.5049 17.0588 24.4058 16.8584 24.0113C16.7994 23.8953 16.7445 23.6633 16.7445 23.5325V23.4629H17.5988C18.1388 23.4629 18.4805 23.4523 18.5291 23.4355C18.6387 23.3975 18.6683 23.3026 18.6493 23.0579C18.6113 22.5727 18.4489 22.269 18.1304 22.077C17.9279 21.9547 17.5524 21.8935 17.2698 21.9399V21.9399ZM17.7254 22.3302C17.9785 22.4061 18.1346 22.6212 18.1578 22.9187L18.1705 23.0895H16.7403L16.7572 22.9862C16.8015 22.7288 16.9091 22.5369 17.0757 22.423C17.2634 22.2943 17.4976 22.2605 17.7254 22.3302V22.3302ZM20.1702 21.9462C20.052 21.9842 19.8812 22.1213 19.7588 22.2753L19.6407 22.4272L19.628 22.2057L19.6154 21.9842L19.4677 21.9758C19.3855 21.9716 19.2948 21.9737 19.2631 21.9821L19.2062 21.9948V23.3469C19.2062 24.5577 19.2104 24.699 19.2462 24.7137C19.2969 24.7327 19.5901 24.7327 19.6386 24.7137C19.6745 24.7011 19.6787 24.5977 19.6787 23.8173V22.9355L19.7884 22.7816C19.9381 22.5706 20.1322 22.3998 20.244 22.3787C20.303 22.3681 20.3959 22.3766 20.5055 22.404C20.6131 22.4314 20.6848 22.4377 20.6996 22.423C20.7123 22.4103 20.7207 22.3091 20.7165 22.2036C20.7102 22.0137 20.7059 22.0053 20.6363 21.9737C20.5498 21.9315 20.2651 21.9146 20.1702 21.9462V21.9462ZM24.448 21.9484C24.2518 21.9821 23.9734 22.1255 23.8299 22.269C23.5578 22.5411 23.4439 22.9166 23.4629 23.4734C23.4798 23.9755 23.5726 24.2244 23.8362 24.4712C24.0873 24.7095 24.353 24.7876 24.834 24.7728C25.1862 24.7602 25.5027 24.6905 25.6482 24.5935C25.7199 24.545 25.7284 24.526 25.7347 24.4037C25.7389 24.3298 25.7305 24.2518 25.7178 24.2307C25.6925 24.1906 25.7136 24.1864 25.2938 24.3193C25.123 24.372 25.0323 24.3847 24.8213 24.3868C24.4037 24.3889 24.1885 24.2771 24.0472 23.9902C23.9881 23.87 23.967 23.7856 23.9565 23.6464L23.9438 23.4629L24.8382 23.4566C25.9119 23.4481 25.8402 23.4713 25.838 23.1402C25.8359 22.558 25.5849 22.153 25.1314 21.9948C24.9669 21.9399 24.6357 21.9167 24.448 21.9484V21.9484ZM24.9162 22.3323C25.163 22.4061 25.3255 22.6255 25.3592 22.9355L25.3761 23.0895H23.9459L23.9607 22.9651C23.9966 22.6613 24.2054 22.3998 24.4754 22.3175C24.5787 22.2859 24.7812 22.2943 24.9162 22.3323V22.3323ZM27.38 21.9441C27.2197 21.9969 26.9982 22.1825 26.8759 22.366C26.8358 22.4272 26.8337 22.423 26.8337 22.2289C26.8337 22.1066 26.8231 22.018 26.8041 22.0011C26.7641 21.961 26.4561 21.961 26.416 22.0011C26.3738 22.0433 26.3738 24.6568 26.416 24.699C26.4561 24.7391 26.8126 24.7391 26.8527 24.699C26.8737 24.6779 26.8822 24.4416 26.8822 23.7983V22.9271L26.975 22.79C27.1121 22.5854 27.2851 22.4251 27.4053 22.3892C27.5087 22.3576 27.5487 22.3618 27.8251 22.4335C27.9031 22.4546 27.9263 22.4103 27.9263 22.2437C27.9263 22.058 27.9095 22.0074 27.8314 21.9716C27.7512 21.9357 27.4623 21.9167 27.38 21.9441V21.9441ZM20.7734 22.0095C20.7481 22.0412 20.8241 22.2732 21.208 23.3448C21.4632 24.0577 21.6931 24.6631 21.7184 24.6905C21.8134 24.7876 22.2837 24.7644 22.3259 24.661C22.3576 24.5787 23.2287 22.1593 23.2456 22.1023C23.2752 22.0032 23.2224 21.9737 23.0094 21.9737C22.8849 21.9737 22.8069 21.9842 22.7921 22.0053C22.7795 22.0222 22.6023 22.5263 22.3998 23.1254C22.1973 23.7245 22.0243 24.2054 22.0137 24.1927C22.0032 24.1822 21.8302 23.6928 21.6298 23.1043C21.4295 22.5158 21.2523 22.0222 21.2375 22.0032C21.1995 21.9547 20.8114 21.961 20.7734 22.0095V22.0095Z" fill="black"/>
</svg>
