<svg width="30" height="30" viewBox="0 0 30 30" fill="none" xmlns="http://www.w3.org/2000/svg">
<g clip-path="url(#clip0_1_100)">
<path d="M14.9995 7C11.5335 7 9.36724 8.66237 8.50078 11.987C9.80052 10.3246 11.3169 9.70127 13.0499 10.1169C14.0386 10.354 14.7453 11.0421 15.5276 11.8037C16.802 13.0445 18.2768 14.4805 21.4982 14.4805C24.9642 14.4805 27.1305 12.8181 27.9969 9.49351C26.6972 11.1559 25.1808 11.7793 23.4478 11.3636C22.4591 11.1266 21.7524 10.4384 20.9701 9.67682C19.6957 8.43601 18.2209 7 14.9995 7ZM8.50078 14.4805C5.03483 14.4805 2.86853 16.1429 2.00207 19.4675C3.30181 17.8052 4.81814 17.1818 6.55116 17.5974C7.53988 17.8345 8.24662 18.5226 9.0289 19.2842C10.3033 20.525 11.7781 21.961 14.9995 21.961C18.4654 21.961 20.6317 20.2987 21.4982 16.974C20.1985 18.6364 18.6821 19.2598 16.9491 18.8442C15.9604 18.6071 15.2537 17.9189 14.4714 17.1573C13.197 15.9165 11.7222 14.4805 8.50078 14.4805Z" fill="url(#paint0_linear_1_100)"/>
</g>
<defs>
<linearGradient id="paint0_linear_1_100" x1="1.27993" y1="11.7875" x2="23.2548" y2="24.9964" gradientUnits="userSpaceOnUse">
<stop stop-color="#2298BD"/>
<stop offset="1" stop-color="#0ED7B5"/>
</linearGradient>
<clipPath id="clip0_1_100">
<rect width="26" height="15" fill="white" transform="translate(2 7)"/>
</clipPath>
</defs>
</svg>
