<svg width="30" height="30" viewBox="0 0 30 30" fill="none" xmlns="http://www.w3.org/2000/svg">
<rect width="30" height="30" rx="5" fill="white"/>
<g clip-path="url(#clip0_2_245)">
<path d="M6.49946 17.8033C6.81135 18.1767 7.14047 18.5361 7.48578 18.8805C6.43243 19.1892 5.74194 19.7623 5.31114 20.2684C4.62969 21.0694 4.26896 22.1272 4.35193 23.0351H2.53802C2.90179 22.2664 4.35386 20.0454 6.49946 17.8033M27.5112 23.5169H25.3057C20.2461 20.9457 15.8041 19.1327 11.0853 18.7366C11.0953 18.0971 11.2122 17.3731 11.4371 16.5663L11.0024 16.4525C10.7716 17.2815 10.6506 18.0319 10.6366 18.7035C10.142 18.6714 9.64635 18.6555 9.15061 18.6558C8.72783 18.6558 8.34211 18.6938 7.99042 18.7599C7.53169 18.3142 7.14099 17.8879 6.80921 17.4841C8.98568 15.2768 12.5703 13.2798 15.6902 12.5286C16.5687 15.3722 18.4544 17.3205 20.7428 18.6315C20.9106 18.5383 21.0756 18.4403 21.2374 18.3376L25.2298 22.5232L25.4046 22.5086C26.4949 22.4172 27.1145 22.9933 27.2785 23.1723C27.3993 23.3027 27.4712 23.4225 27.5112 23.5169Z" fill="#D1A41A"/>
<path d="M25.5636 9.51653C25.6445 13.3791 23.6209 16.4535 20.7877 18.03C15.979 15.6974 15.0736 9.78613 15.8931 6.61546C16.1209 7.82809 16.5356 8.58814 17.4311 8.9609C19.3837 8.41685 22.0709 8.37392 24.0506 8.90542C24.875 8.32151 25.1948 7.42912 25.3697 6.64958C25.5875 7.55651 25.5626 9.51653 25.5636 9.51653Z" fill="#FFDC76"/>
<path d="M19.0846 10.0328C19.2509 10.0328 19.3675 10.0986 19.4518 10.2392C19.6493 10.5701 19.6169 11.2229 19.4531 11.9058H18.1231V12.1895H19.3782C19.2436 12.6555 19.0544 13.1164 18.8414 13.4817L18.7725 13.5998L20.4367 14.6198L19.4998 15.221L19.6602 15.4581L20.7073 14.7858L21.8377 15.5042L21.993 15.2641L20.9449 14.6326C20.9449 14.6326 22.512 13.6413 22.5899 13.5928L22.5887 13.5911L22.5905 13.5908C22.2451 13.0949 22.1356 12.6715 22.2794 12.1895H22.397L23.6608 12.1881L23.6637 11.9058H22.3903C22.6249 11.3682 22.9534 10.8841 24.1257 10.8841V10.6004C23.044 10.6004 22.3966 11.0186 22.0866 11.9058H19.7527C19.9159 11.1966 19.9442 10.4994 19.7033 10.0964C19.5677 9.86931 19.3537 9.74895 19.0846 9.74895C18.1206 9.74895 17.7399 10.7084 17.7243 10.7492L17.9971 10.8489C18.0107 10.8142 18.325 10.0328 19.0846 10.0328V10.0328ZM20.7039 14.4483L19.473 13.6936L21.8785 13.6942L20.7039 14.4483ZM21.983 12.1895C21.8795 12.5108 21.921 12.9947 22.1757 13.41H19.2103C19.3906 13.058 19.5579 12.6289 19.6802 12.1895H21.983V12.1895Z" fill="black"/>
<path d="M17.9973 10.8489H17.9971L17.997 10.8493L17.9973 10.8489Z" fill="black"/>
<path d="M27.6138 22.8727C27.1199 22.3347 26.1524 22.08 25.3446 22.0989C24.8296 21.502 22.0971 18.6927 21.5454 18.1262C22.7085 17.3301 23.6922 16.3109 24.436 15.131H25.9439V14.8158H24.6269C24.7111 14.6706 24.7917 14.5233 24.8686 14.3743H25.9439V14.059H25.0252C25.7076 12.6236 26.0853 10.9757 26.0487 9.17215L26.0525 9.17423C26.0506 8.68081 25.8929 6.59529 25.6028 6.02107C24.8164 6.31213 23.3853 7.25506 23.0615 8.21934C21.5093 7.99365 19.7594 8.02035 18.2266 8.27868C17.9705 7.24121 16.6852 6.44723 15.7155 6C15.3065 6.67213 15.1254 8.23052 15.1714 9.33603L15.166 9.33949C15.2047 10.3383 15.3439 11.2555 15.5681 12.0982C12.2146 12.9075 8.56376 15.0468 6.52154 17.1143C5.56569 15.858 5.18647 14.8269 5.07384 14.0456C4.93156 13.0589 5.17347 12.1536 5.77327 11.4278C6.71237 10.2917 8.04663 10.2117 9.41856 10.4364C9.39175 10.6474 9.42019 10.849 9.50702 10.9738C9.86978 11.4956 11.8198 11.679 12.9837 11.1733C12.1248 10.0011 10.3849 9.4288 9.90279 9.65815C9.74314 9.73401 9.62259 9.87356 9.54003 10.0363C9.06586 9.95367 8.59493 9.89215 8.25066 9.89463C7.0407 9.90333 6.11572 10.3151 5.423 11.1532C4.74328 11.9756 4.46856 12.9969 4.62852 14.1065C4.78004 15.1575 5.31433 16.2754 6.20997 17.4347C6.06466 17.5865 5.92099 17.7397 5.77896 17.8943C3.59609 20.2729 2.00052 22.8236 2.00052 23.2462V23.4651H4.88018L4.8297 23.2055C4.66711 22.3685 4.99189 21.3224 5.65709 20.5404C6.07469 20.0496 6.7663 19.4893 7.85235 19.2308C8.81806 20.1486 10.0483 21.1234 11.4178 22.0637H13.5577V21.8447C13.5577 21.5977 13.432 21.3814 13.2035 21.2358C12.8654 21.0206 12.3436 20.9909 11.8643 21.1502C11.4073 20.6545 11.151 19.9923 11.0957 19.17C15.74 19.5705 20.1822 21.3969 25.1947 23.9469H27.9526L27.9887 23.7708C28.0402 23.5202 27.8999 23.1845 27.6138 22.8727V22.8727ZM15.8928 6.60824C16.121 7.82037 16.5349 8.58053 17.4312 8.95348C18.2248 8.73234 19.1403 8.59546 20.0799 8.54492L20.8593 10.2095L21.3589 8.53048C22.3084 8.56045 23.2388 8.68022 24.0498 8.8981C24.8748 8.31399 25.1947 7.4218 25.3693 6.64226C25.5876 7.54938 25.5624 9.50881 25.563 9.50921C25.5783 10.2409 25.5179 10.9441 25.391 11.6143L24.5008 11.9827L25.2853 12.0984C25.2239 12.3527 25.152 12.6045 25.0696 12.8532L24.3106 13.0678L24.9154 13.2798C24.8133 13.5444 24.699 13.8044 24.5729 14.059H23.3212V14.3743H24.4083C24.3265 14.5237 24.2404 14.671 24.1504 14.8158H23.3212V15.131H23.9467C23.1238 16.3447 22.0341 17.3288 20.7873 18.0227C19.3463 17.3235 18.2562 16.3028 17.4575 15.131H17.9354V14.8158H17.2517C17.1613 14.6709 17.0748 14.5236 16.9924 14.3743H17.9354V14.059H16.8253C16.6358 13.684 16.4691 13.2984 16.326 12.9044L16.8915 12.7502L16.1784 12.4725C16.1067 12.2472 16.042 12.0199 15.9842 11.7909L17.0818 11.718L15.8267 11.0695C15.5191 9.41773 15.5809 7.81464 15.8928 6.60824V6.60824ZM5.31088 20.261C4.62974 21.0616 4.2687 22.1192 4.35137 23.0272H2.53735C2.90184 22.259 4.3537 20.0384 6.499 17.7953C6.79463 18.1512 7.12388 18.5106 7.48552 18.873C6.43227 19.1813 5.74169 19.7547 5.31088 20.261V20.261ZM25.305 23.509C20.2459 20.9382 15.8036 19.1254 11.0848 18.7294C11.0951 18.0899 11.2121 17.366 11.4363 16.5593L11.0023 16.4447C10.7717 17.274 10.6503 18.0249 10.6365 18.696C10.142 18.664 9.64643 18.6479 9.15076 18.6479C8.72737 18.6479 8.34175 18.6861 7.99006 18.7527C7.53143 18.3063 7.14064 17.8808 6.80865 17.477C7.3992 16.8778 8.09405 16.2946 8.85441 15.7473L9.90736 16.4553L9.56359 15.2596C9.88603 15.048 10.2144 14.845 10.5482 14.6509L12.1086 15.4231L11.3759 14.1929C11.5891 14.0807 11.8042 13.972 12.0212 13.8669L14.2011 15.2909L13.4852 13.225C14.2293 12.933 14.9715 12.6941 15.6893 12.5212C15.8521 13.0487 16.0572 13.5628 16.3027 14.059H15.3126V14.3743H16.4659C16.5471 14.5245 16.631 14.6719 16.7186 14.8158H15.3126V15.131H16.9191C17.9043 16.6203 19.2355 17.7606 20.7422 18.6237C20.9099 18.53 21.0748 18.4317 21.2367 18.3288L21.6315 18.7428L20.968 19.737L22.0998 19.2338L22.7551 19.9207L21.6474 20.7427L23.1727 20.3586L25.2299 22.5154L25.4041 22.5009C26.4946 22.41 27.1144 22.9859 27.2785 23.1646C27.3989 23.2956 27.4715 23.4152 27.511 23.509H25.305V23.509Z" fill="black"/>
</g>
<defs>
<clipPath id="clip0_2_245">
<rect width="26" height="18" fill="white" transform="translate(2 6)"/>
</clipPath>
</defs>
</svg>
