<svg width="30" height="30" viewBox="0 0 30 30" fill="none" xmlns="http://www.w3.org/2000/svg">
<path d="M4.03125 2H25.9688C27.0906 2 28 2.90939 28 4.03125V25.9688C28 27.0906 27.0906 28 25.9688 28H4.03125C2.90939 28 2 27.0906 2 25.9688V4.03125C2 2.90939 2.90939 2 4.03125 2Z" fill="#3178C6"/>
<path d="M17.2905 22.4936V25.2987C17.7536 25.5325 18.3013 25.7078 18.9336 25.8247C19.5659 25.9416 20.2323 26 20.9329 26C21.6156 26 22.2642 25.9357 22.8787 25.8071C23.4931 25.6786 24.032 25.4667 24.4949 25.1717C24.958 24.8765 25.3246 24.4908 25.5948 24.0145C25.8649 23.5382 26 22.9495 26 22.2482C26 21.7398 25.9228 21.2941 25.7685 20.9113C25.6158 20.5311 25.3889 20.1841 25.1005 19.8901C24.8097 19.592 24.4608 19.3247 24.0542 19.088C23.6475 18.8513 23.1889 18.6278 22.6782 18.4174C22.3042 18.2654 21.9689 18.1179 21.672 17.9747C21.3752 17.8315 21.1228 17.6855 20.9151 17.5364C20.7072 17.3874 20.5469 17.2296 20.4341 17.063C20.3213 16.8964 20.2649 16.708 20.2649 16.4976C20.2649 16.3047 20.3154 16.131 20.4163 15.9761C20.5172 15.8212 20.6598 15.6883 20.8438 15.5773C21.0278 15.4661 21.2534 15.38 21.5206 15.3186C21.7877 15.2572 22.0846 15.2266 22.4111 15.2266C22.6487 15.2266 22.8995 15.2441 23.1636 15.2792C23.4278 15.3142 23.6935 15.3682 23.9607 15.4414C24.2271 15.5141 24.4875 15.6064 24.7399 15.7175C24.9846 15.8243 25.2186 15.9534 25.439 16.1031V13.4821C25.0056 13.3185 24.5321 13.1972 24.0186 13.1183C23.5051 13.0394 22.9158 13 22.2508 13C21.574 13 20.9329 13.0716 20.3273 13.2148C19.7218 13.3579 19.1889 13.5814 18.7288 13.8853C18.2687 14.1893 17.9051 14.5765 17.6378 15.0469C17.3707 15.5173 17.2371 16.0798 17.2371 16.7344C17.2371 17.57 17.482 18.283 17.9719 18.8733C18.4616 19.4634 19.2052 19.9631 20.2026 20.3722C20.5708 20.5199 20.936 20.6749 21.2979 20.8369C21.6364 20.9888 21.9288 21.1465 22.1752 21.3101C22.4215 21.4738 22.616 21.652 22.7585 21.8449C22.9009 22.0377 22.9722 22.2569 22.9722 22.5024C22.9733 22.6791 22.9273 22.8529 22.8386 23.0064C22.7496 23.1612 22.6144 23.2957 22.4334 23.4096C22.2524 23.5236 22.0267 23.6127 21.7566 23.677C21.4865 23.7412 21.1703 23.7734 20.8081 23.7734C20.1907 23.7734 19.5793 23.6668 18.9737 23.4534C18.368 23.2401 17.807 22.9202 17.2905 22.4936V22.4936ZM12.5445 15.5129H16.2062V13.2031H6V15.5129H9.64381V25.7969H12.5445V15.5129Z" fill="white"/>
</svg>
