<svg width="30" height="30" viewBox="0 0 30 30" fill="none" xmlns="http://www.w3.org/2000/svg">
<path d="M5.53313 25.5009L3.42751 1.875H26.5725L24.4641 25.4972L14.9859 28.125L5.53313 25.5009Z" fill="#1572B6"/>
<path d="M15 26.1169L22.6594 23.9934L24.4612 3.80719H15V26.1169Z" fill="#33A9DC"/>
<path d="M15 12.3666H18.8344L19.0987 9.39937H15V6.50156H22.2656L22.1963 7.27875L21.4847 15.2644H15V12.3666V12.3666Z" fill="white"/>
<path d="M15.0178 19.8919L15.0047 19.8956L11.7778 19.0238L11.5716 16.7128H8.66251L9.06844 21.2625L15.0038 22.9106L15.0178 22.9069V19.8919V19.8919Z" fill="#EBEBEB"/>
<path d="M18.5878 15.1416L18.2391 19.0219L15.0075 19.8937V22.9088L20.9475 21.2625L20.9916 20.7731L21.495 15.1416H18.5878V15.1416Z" fill="white"/>
<path d="M15.0103 6.50156V9.39937H8.01094L7.95281 8.74781L7.82063 7.27875L7.75125 6.50156H15.0103V6.50156ZM15 12.3666V15.2644H11.8134L11.7553 14.6128L11.6241 13.1438L11.5547 12.3666H15V12.3666Z" fill="#EBEBEB"/>
</svg>
