<svg width="30" height="30" viewBox="0 0 30 30" fill="none" xmlns="http://www.w3.org/2000/svg">
<rect width="30" height="30" rx="5" fill="white"/>
<g clip-path="url(#clip0_2_120)">
<path d="M11.8051 21.553C11.8051 21.553 10.8772 22.0854 12.4654 22.2655C14.3895 22.4821 15.3728 22.4511 17.4932 22.0551C17.4932 22.0551 18.0507 22.4 18.8291 22.6987C14.076 24.7087 8.07165 22.5823 11.8051 21.553M11.2242 18.9301C11.2242 18.9301 10.1836 19.6902 11.773 19.8524C13.8283 20.0616 15.4514 20.0787 18.2601 19.5451C18.2601 19.5451 18.6486 19.9337 19.2594 20.1462C13.5125 21.8043 7.11147 20.2769 11.2242 18.9301" fill="#5382A1"/>
<path d="M16.1207 14.4808C17.292 15.8112 15.813 17.0084 15.813 17.0084C15.813 17.0084 18.7869 15.4937 17.4211 13.5969C16.1456 11.8281 15.1673 10.9491 20.4629 7.91889C20.4629 7.91889 12.1506 9.96721 16.1207 14.4807" fill="#E76F00"/>
<path d="M22.4072 23.4931C22.4072 23.4931 23.0939 24.0513 21.651 24.4831C18.9074 25.3032 10.2318 25.5508 7.82172 24.5158C6.9554 24.144 8.58006 23.6279 9.09108 23.5196C9.62404 23.4055 9.92866 23.4268 9.92866 23.4268C8.96517 22.7571 3.70114 24.7418 7.25481 25.3101C16.9461 26.8608 24.921 24.6119 22.4072 23.4931ZM12.2512 16.2125C12.2512 16.2125 7.83831 17.2467 10.6885 17.6222C11.892 17.7812 14.291 17.7452 16.5257 17.5604C18.352 17.4085 20.1858 17.0853 20.1858 17.0853C20.1858 17.0853 19.5418 17.3574 19.0759 17.6713C14.5946 18.8342 5.93757 18.2932 8.42983 17.1037C10.5375 16.0985 12.2513 16.2125 12.2513 16.2125M20.1676 20.5784C24.7231 18.2428 22.6168 15.9983 21.1467 16.3007C20.7863 16.3747 20.6257 16.4388 20.6257 16.4388C20.6257 16.4388 20.7594 16.232 21.0149 16.1426C23.9233 15.1337 26.1601 19.1181 20.076 20.6961C20.076 20.6962 20.1466 20.634 20.1676 20.5784Z" fill="#5382A1"/>
<path d="M17.4211 3.02573C17.4211 3.02573 19.944 5.51591 15.0283 9.34488C11.0864 12.4165 14.1294 14.1678 15.0266 16.1687C12.7257 14.1204 11.037 12.3172 12.1699 10.639C13.8326 8.1754 18.439 6.98102 17.4211 3.02567" fill="#E76F00"/>
<path d="M12.6989 26.9074C17.0716 27.1836 23.7863 26.7542 23.9453 24.7127C23.9453 24.7127 23.6396 25.4867 20.3315 26.1012C16.5994 26.7942 11.9963 26.7133 9.26614 26.2692C9.26621 26.2692 9.82503 26.7256 12.699 26.9074" fill="#5382A1"/>
</g>
<defs>
<clipPath id="clip0_2_120">
<rect width="18" height="24" fill="white" transform="translate(6 3)"/>
</clipPath>
</defs>
</svg>
