<svg width="30" height="30" viewBox="0 0 30 30" fill="none" xmlns="http://www.w3.org/2000/svg">
<path d="M14.0282 2.08063L3.20809 8.00127C2.80236 8.22152 2.55319 8.6315 2.55319 9.07418V20.922C2.55319 21.3647 2.80236 21.7725 3.20809 21.9949L14.0304 27.9199C14.4339 28.1402 14.9344 28.1402 15.338 27.9199L26.158 21.9949C26.5593 21.7725 26.8085 21.3647 26.8085 20.922V9.07418C26.8085 8.6315 26.5593 8.2237 26.1536 8.00127L15.3357 2.08063C15.1329 1.96941 14.9058 1.91489 14.6809 1.91489C14.4537 1.91489 14.2288 1.96941 14.026 2.08063" fill="#388E3C"/>
<path d="M14.0282 2.08063L2.55319 20.922C2.55319 21.3647 2.80236 21.7725 3.20809 21.9949L14.0304 27.9199C14.4339 28.1402 14.9344 28.1402 15.338 27.9199L26.8085 9.07418C26.8085 8.6315 26.5593 8.2237 26.1536 8.00127L15.3357 2.08063C15.1329 1.96941 14.9058 1.91489 14.6809 1.91489C14.4537 1.91489 14.2288 1.96941 14.026 2.08063" fill="#2E7D32"/>
<path d="M14.0282 2.08063L3.20809 8.00127C2.80236 8.22152 2.55319 8.6315 2.55319 9.07418L14.0282 27.9199C14.4317 28.1402 14.9322 28.1402 15.3357 27.9199L26.1558 21.9949C26.5593 21.7725 26.8085 21.3647 26.8085 20.922L15.3357 2.08063C15.1329 1.96941 14.9058 1.91489 14.6809 1.91489C14.4537 1.91489 14.2288 1.96941 14.026 2.08063" fill="#4CAF50"/>
</svg>
