<svg width="30" height="30" viewBox="0 0 30 30" fill="none" xmlns="http://www.w3.org/2000/svg">
<rect x="10" y="3" width="3" height="4" fill="white"/>
<rect x="20.5" y="8.5" width="2" height="10" fill="white"/>
<rect x="7" y="11.5" width="2" height="10" fill="white"/>
<rect x="5" y="16" width="3" height="19" transform="rotate(-90 5 16)" fill="white"/>
<rect x="17" y="23" width="3" height="4" fill="white"/>
<path d="M14.8922 1.96875C8.23594 1.96875 8.65688 4.84688 8.65688 4.84688V7.8375H14.9869V8.775H6.13594C6.13594 8.775 1.875 8.25 1.875 15.0047C1.875 21.7594 5.63719 21.4847 5.63719 21.4847H7.80937V18.3338C7.80937 18.3338 7.6875 14.5716 11.4656 14.5716H17.805C17.805 14.5716 21.3412 14.6278 21.3412 11.1478V5.4375C21.3412 5.4375 21.8775 1.9575 14.9269 1.9575L14.8922 1.96875ZM11.3934 3.97219C11.6185 3.96651 11.8401 4.02769 12.0304 4.148C12.2207 4.26831 12.371 4.44234 12.4623 4.64808C12.5537 4.85382 12.582 5.08203 12.5436 5.30384C12.5053 5.52566 12.402 5.73113 12.2469 5.89425C12.0918 6.05738 11.8917 6.17084 11.6721 6.22028C11.4525 6.26973 11.2232 6.25294 11.0131 6.17203C10.803 6.09113 10.6217 5.94975 10.492 5.76577C10.3623 5.58179 10.29 5.36348 10.2844 5.13844V5.11969C10.2844 4.81784 10.4043 4.52835 10.6177 4.31491C10.8312 4.10147 11.1207 3.98156 11.4225 3.98156L11.3934 3.97219Z" fill="url(#paint0_linear_1_76)"/>
<path d="M15.0797 28.0406C21.7359 28.0406 21.315 25.1531 21.315 25.1531V22.1719H14.9859V21.2344H23.8641C23.8641 21.2344 28.125 21.7106 28.125 14.9953C28.125 8.28 24.3628 8.51531 24.3628 8.51531H22.1625V11.625C22.1625 11.625 22.2844 15.3872 18.5063 15.3872H12.1641C12.1641 15.3872 8.625 15.3338 8.625 18.8138V24.5625C8.625 24.5625 8.08875 28.0425 15.0394 28.0425H15.0769L15.0797 28.0406ZM18.5784 26.0278C18.3534 26.0335 18.1317 25.9723 17.9415 25.852C17.7512 25.7317 17.6009 25.5577 17.5095 25.3519C17.4182 25.1462 17.3899 24.918 17.4282 24.6962C17.4666 24.4743 17.5699 24.2689 17.725 24.1057C17.8801 23.9426 18.0801 23.8292 18.2997 23.7797C18.5194 23.7303 18.7487 23.7471 18.9588 23.828C19.1688 23.9089 19.3502 24.0503 19.4799 24.2342C19.6096 24.4182 19.6819 24.6365 19.6875 24.8616V24.8897C19.6875 25.1915 19.5676 25.481 19.3542 25.6945C19.1407 25.9079 18.8512 26.0278 18.5494 26.0278H18.5775H18.5784Z" fill="url(#paint1_linear_1_76)"/>
<defs>
<linearGradient id="paint0_linear_1_76" x1="4.46921" y1="4.52147" x2="16.9255" y2="16.9495" gradientUnits="userSpaceOnUse">
<stop stop-color="#387EB8"/>
<stop offset="1" stop-color="#366994"/>
</linearGradient>
<linearGradient id="paint1_linear_1_76" x1="11.8383" y1="12.6174" x2="26.0697" y2="25.0417" gradientUnits="userSpaceOnUse">
<stop stop-color="#FFE052"/>
<stop offset="1" stop-color="#FFC331"/>
</linearGradient>
</defs>
</svg>
